<?xml version="1.0" standalone="no"?>
<!DOCTYPE svg PUBLIC "-//W3C//DTD SVG 20010904//EN"
 "http://www.w3.org/TR/2001/REC-SVG-20010904/DTD/svg10.dtd">
<svg version="1.0" xmlns="http://www.w3.org/2000/svg"
 width="1820.000000pt" height="1820.000000pt" viewBox="0 0 1820.000000 1820.000000"
 preserveAspectRatio="xMidYMid meet">
<metadata>
Created by potrace 1.14, written by Peter Selinger 2001-2017
</metadata>
<g transform="translate(0.000000,1820.000000) scale(0.100000,-0.100000)"
fill="#000000" stroke="none">
<path d="M8738 18095 c-1 -1 -59 -6 -128 -9 -69 -3 -152 -8 -185 -11 -98 -8
-188 -16 -225 -20 -19 -2 -62 -7 -95 -11 -33 -3 -71 -8 -85 -9 -14 -2 -50 -6
-80 -9 -30 -3 -66 -8 -80 -11 -14 -2 -45 -7 -70 -10 -25 -4 -94 -15 -155 -25
-60 -11 -128 -22 -150 -26 -22 -3 -44 -7 -50 -9 -10 -2 -77 -15 -105 -20 -8
-2 -51 -11 -95 -20 -44 -9 -90 -19 -103 -21 -32 -6 -393 -99 -482 -124 -693
-195 -1424 -503 -2034 -857 -60 -35 -110 -63 -112 -63 -3 0 -30 -17 -62 -37
-31 -20 -70 -45 -87 -55 -33 -21 -252 -161 -275 -178 -157 -107 -196 -135
-198 -142 -2 -4 -8 -8 -13 -8 -21 0 -527 -395 -632 -493 -17 -16 -41 -36 -53
-46 -111 -88 -515 -477 -661 -637 -15 -17 -62 -69 -105 -115 -86 -94 -205
-232 -258 -298 -19 -25 -49 -60 -65 -80 -17 -20 -46 -56 -65 -81 -48 -62 -45
-58 -98 -126 -54 -71 -59 -78 -153 -211 -39 -54 -77 -107 -85 -118 -42 -57
-224 -341 -299 -467 -47 -78 -90 -150 -95 -158 -11 -18 -84 -149 -131 -235
-44 -82 -200 -394 -239 -480 -27 -59 -54 -119 -119 -270 -124 -285 -253 -651
-356 -1005 -29 -102 -56 -198 -60 -215 -4 -16 -9 -37 -11 -45 -18 -70 -55
-221 -59 -245 -3 -16 -8 -38 -11 -47 -7 -23 -18 -76 -28 -130 -2 -13 -7 -34
-10 -48 -3 -14 -8 -38 -11 -55 -17 -92 -46 -254 -50 -280 -10 -61 -34 -231
-40 -280 -4 -27 -8 -61 -11 -75 -2 -14 -6 -53 -9 -85 -3 -33 -7 -76 -10 -95
-2 -19 -7 -71 -10 -115 -4 -44 -8 -98 -10 -120 -27 -289 -27 -985 0 -1305 15
-174 24 -274 30 -320 3 -19 7 -57 10 -85 4 -27 8 -61 10 -75 2 -14 7 -47 10
-75 8 -59 8 -64 34 -220 20 -121 47 -273 55 -310 2 -11 12 -56 21 -100 9 -44
28 -127 41 -185 14 -58 27 -114 29 -124 8 -37 68 -252 110 -396 143 -486 337
-976 574 -1450 121 -242 230 -441 239 -436 4 2 41 7 82 10 41 4 84 9 95 11 11
3 47 7 80 10 33 3 74 7 90 9 17 2 59 7 95 10 36 4 76 9 90 11 14 2 54 7 90 11
36 3 76 7 90 9 14 2 54 6 90 9 36 4 76 9 90 11 14 2 54 7 90 10 36 3 76 8 90
10 14 2 54 6 90 10 36 4 76 8 90 10 14 2 54 6 90 10 36 4 76 8 90 10 39 6 118
14 195 20 102 8 182 15 245 20 30 3 87 7 125 10 39 3 95 8 125 10 30 3 89 8
130 10 41 3 95 7 120 9 89 9 197 16 320 22 69 4 150 8 180 9 471 26 1625 26
1925 1 22 -2 103 -7 180 -10 77 -4 160 -9 185 -11 25 -2 86 -7 135 -10 50 -3
115 -7 145 -10 30 -2 93 -7 140 -10 47 -3 101 -8 120 -10 62 -6 174 -16 220
-20 87 -8 175 -16 210 -20 19 -2 60 -7 90 -10 30 -3 71 -7 90 -9 19 -3 64 -7
100 -10 36 -3 74 -7 85 -10 11 -2 56 -7 100 -11 44 -4 87 -8 95 -10 8 -1 46
-6 84 -10 38 -4 79 -9 90 -11 12 -1 46 -5 77 -8 31 -3 72 -8 90 -10 19 -3 61
-8 94 -11 33 -3 71 -8 85 -10 14 -2 54 -7 90 -10 36 -3 76 -7 90 -9 14 -2 54
-7 90 -11 36 -3 76 -8 90 -10 39 -5 120 -14 170 -20 49 -5 115 -13 170 -20 80
-10 178 -19 220 -19 51 -1 48 -8 75 166 24 154 24 151 -41 173 -64 22 -138 82
-150 122 -4 16 -8 31 -9 36 -2 4 -3 31 -4 60 l-1 54 -87 37 c-49 21 -105 49
-125 62 -21 13 -40 24 -43 24 -6 0 -36 24 -91 73 -67 60 -84 104 -78 200 3 44
7 83 9 87 3 4 7 25 10 46 4 22 8 47 11 57 3 10 7 30 9 45 3 15 7 38 10 52 22
108 52 263 61 320 3 19 7 42 9 50 2 8 7 31 10 50 9 52 14 82 20 110 3 14 8 41
11 60 3 19 7 46 10 60 22 129 34 201 39 235 3 23 7 50 9 60 2 11 7 45 11 75 4
30 9 62 10 70 1 8 6 40 10 70 3 30 8 66 10 80 2 14 6 50 10 80 3 30 8 71 10
90 3 19 7 67 11 105 3 39 7 84 9 100 3 33 13 185 20 310 2 44 7 175 10 290 16
605 18 677 31 845 13 178 9 343 -11 420 -2 8 -7 38 -10 65 -11 80 -29 191 -40
245 -5 25 -32 159 -39 195 -11 53 -38 163 -46 190 -19 59 -52 170 -55 186 -8
38 -110 280 -157 372 -47 92 -136 244 -170 290 -7 9 -27 20 -43 23 -24 4 -124
27 -255 59 -50 12 -276 87 -350 115 -30 12 -66 25 -80 30 -116 37 -702 316
-1040 495 -80 42 -197 104 -260 137 -63 34 -119 64 -125 68 -5 4 -58 32 -116
63 -58 31 -148 80 -200 110 -53 29 -102 57 -110 61 -8 4 -30 17 -51 29 -20 12
-62 37 -94 55 -120 71 -346 225 -396 272 -9 8 -77 33 -150 54 -73 22 -194 59
-268 82 -271 87 -395 127 -415 135 -11 5 -47 18 -80 30 -90 31 -215 79 -262
100 -24 11 -45 19 -48 19 -10 0 -311 139 -359 166 -25 14 -52 36 -58 47 -20
36 -15 382 6 507 3 14 7 43 11 65 9 63 24 152 46 259 10 55 18 100 17 101 -2
1 -65 40 -141 86 -76 46 -149 90 -161 98 -22 14 -27 12 -67 -21 -36 -29 -101
-65 -124 -68 -3 0 -20 7 -37 16 -23 12 -60 17 -123 18 -101 1 -125 11 -170 70
-16 21 -28 52 -32 85 -4 38 -10 51 -22 51 -9 0 -36 11 -61 25 -25 13 -114 58
-197 100 -84 41 -169 89 -188 106 -65 57 -76 182 -25 278 30 56 43 69 91 89
60 25 147 14 215 -26 29 -17 71 -32 100 -35 27 -3 69 -14 94 -24 25 -11 65
-20 90 -22 63 -4 170 -42 243 -88 85 -53 95 -56 327 -103 113 -22 242 -49 288
-59 45 -10 82 -15 82 -11 0 3 6 14 13 24 12 16 16 16 72 1 33 -8 73 -18 89
-21 16 -3 32 -7 36 -9 4 -2 21 -7 38 -10 18 -3 105 -23 194 -46 90 -22 171
-42 180 -44 288 -65 929 -283 1233 -419 17 -8 80 -35 140 -61 389 -167 696
-339 958 -537 117 -88 119 -89 215 -108 89 -18 226 -47 262 -55 8 -2 58 -13
110 -25 52 -11 194 -45 315 -76 347 -87 432 -110 574 -154 52 -17 95 -29 97
-27 1 1 4 21 8 45 8 63 26 124 42 150 15 23 15 23 108 -65 50 -49 118 -106
149 -127 81 -53 213 -113 310 -141 102 -29 125 -33 267 -40 l115 -6 -26 23
c-14 13 -43 48 -64 78 -58 83 -106 130 -205 200 -49 36 -88 69 -86 75 4 13 82
42 135 50 52 8 126 39 168 71 31 24 34 24 58 8 14 -9 80 -89 148 -178 144
-190 147 -195 212 -261 69 -71 105 -94 156 -100 104 -13 139 -18 226 -35 57
-10 109 -14 136 -10 81 12 229 -1 254 -22 16 -13 30 -1 161 131 46 46 99 108
119 138 l35 55 -49 47 c-42 40 -158 141 -188 164 -78 57 -117 85 -210 148 -99
67 -125 80 -260 123 -420 135 -798 319 -1295 629 -118 74 -352 227 -395 259
-169 126 -323 266 -350 318 -20 38 -7 150 35 315 6 22 13 50 15 62 3 12 10 34
15 48 5 14 8 25 5 25 -2 0 3 16 11 35 17 42 18 71 2 73 -92 9 -161 8 -203 -3
-27 -7 -75 -12 -105 -11 -49 1 -62 7 -120 50 -102 75 -113 111 -46 144 25 13
26 15 12 31 -9 10 -16 26 -16 37 0 10 34 82 76 159 41 77 81 156 87 177 13 43
51 64 93 54 14 -4 61 -31 104 -61 94 -66 285 -159 322 -156 60 3 239 -80 468
-219 8 -5 107 -64 220 -131 202 -119 449 -272 665 -411 61 -39 182 -116 270
-171 172 -107 151 -99 365 -133 44 -7 200 -43 220 -51 8 -4 17 -7 20 -8 28 -7
123 -43 322 -121 130 -52 242 -94 247 -94 5 0 22 -5 38 -12 33 -13 24 -11 133
-36 91 -22 154 -30 290 -37 218 -12 315 -37 485 -123 144 -73 385 -234 472
-315 30 -28 33 -29 39 -11 19 58 30 83 57 122 16 24 34 60 39 79 5 20 19 49
31 64 18 26 19 30 5 46 -38 44 -26 77 37 102 54 21 171 140 184 188 7 25 5 40
-11 69 -25 47 -20 66 43 139 28 33 59 70 70 83 10 12 19 25 19 27 0 3 8 15 18
26 11 10 25 31 32 44 12 23 12 27 -8 41 -12 8 -22 18 -22 22 0 15 137 151 167
166 18 9 49 16 69 16 21 0 55 10 78 24 34 19 57 23 133 25 51 1 103 5 117 10
13 6 57 7 97 5 41 -3 85 -4 99 -3 14 1 42 2 63 2 24 0 37 5 37 13 0 19 58 27
113 14 75 -16 157 -63 212 -120 29 -31 73 -63 105 -77 30 -14 71 -39 90 -56
20 -18 48 -42 63 -54 21 -18 27 -32 27 -62 0 -21 9 -58 19 -82 21 -48 39 -147
45 -246 3 -34 7 -67 11 -72 13 -22 13 -89 -1 -116 -8 -15 -14 -38 -14 -50 0
-13 -13 -50 -30 -83 -16 -34 -30 -66 -30 -73 0 -7 -12 -33 -27 -58 -15 -25
-34 -71 -44 -101 -9 -30 -22 -55 -29 -55 -6 0 -25 -25 -42 -55 -36 -66 -78
-123 -85 -116 -9 9 -60 -22 -86 -54 -20 -23 -34 -30 -60 -30 -29 0 -44 -10
-90 -55 -35 -36 -63 -55 -78 -55 -14 0 -36 -13 -51 -29 -20 -21 -37 -29 -60
-28 -20 0 -50 -10 -75 -26 -23 -15 -49 -24 -57 -21 -9 3 -33 -11 -60 -36 l-45
-42 39 -49 c67 -85 72 -126 27 -260 l-23 -68 52 -54 c102 -107 174 -238 228
-417 28 -96 60 -238 72 -320 4 -30 9 -64 11 -75 1 -11 5 -75 7 -141 4 -124 -6
-202 -39 -294 -18 -50 -114 -243 -149 -299 -24 -37 -31 -62 -41 -141 -3 -25
-10 -70 -15 -100 -5 -30 -12 -75 -16 -100 -3 -25 -7 -49 -8 -55 -1 -5 -8 -37
-15 -70 -7 -33 -16 -71 -20 -85 -5 -14 -15 -45 -22 -70 -7 -25 -16 -49 -19
-55 -4 -5 -14 -31 -24 -57 -37 -100 -145 -239 -261 -336 -65 -54 -215 -151
-291 -187 l-71 -34 -83 -138 c-181 -302 -273 -423 -426 -563 -169 -155 -371
-273 -439 -256 -34 9 -220 278 -299 433 l-26 52 -54 -29 c-57 -31 -94 -38
-113 -19 -11 11 -58 23 -127 34 -17 3 -33 10 -36 16 -4 6 -20 12 -36 14 -61 6
-88 78 -101 266 -5 73 -2 93 15 132 34 76 87 102 231 112 72 6 81 9 81 33 0
10 7 28 16 40 20 30 67 29 125 -3 l47 -24 128 85 c71 47 131 88 134 92 3 4 28
25 55 47 117 93 342 335 472 507 l50 67 -3 98 c-3 89 -12 295 -13 300 -1 1
-52 -48 -113 -111 -62 -62 -151 -142 -198 -177 -101 -75 -227 -159 -240 -159
-6 0 -10 -4 -10 -10 0 -5 -4 -10 -10 -10 -5 0 -33 -14 -62 -31 -99 -59 -342
-177 -438 -212 -166 -61 -403 -116 -525 -121 -86 -3 -85 -12 12 -83 129 -96
211 -134 297 -140 39 -3 74 -8 78 -12 13 -12 -28 -48 -177 -153 -220 -154
-219 -154 -327 -115 -69 25 -150 80 -228 156 -49 48 -49 48 -54 22 -9 -40 -14
-95 -31 -291 -6 -73 -7 -428 -1 -460 2 -14 7 -51 11 -84 10 -85 51 -285 60
-294 2 -3 0 -13 -5 -22 -8 -14 -20 -17 -60 -14 -27 2 -67 7 -88 13 -96 24 -88
26 -102 -27 -6 -26 -13 -54 -15 -62 -2 -8 -19 -85 -38 -170 -32 -138 -47 -210
-62 -290 -3 -14 -9 -47 -15 -75 -13 -62 -67 -365 -75 -420 -4 -22 -8 -51 -11
-65 -11 -67 -24 -149 -29 -190 -2 -25 -7 -61 -10 -80 -12 -91 -20 -159 -30
-260 -3 -36 -8 -81 -10 -100 -2 -19 -7 -71 -10 -115 -3 -44 -8 -100 -10 -125
-4 -41 -14 -188 -20 -300 -27 -465 -27 -991 0 -1225 2 -16 7 -57 11 -90 3 -33
8 -67 9 -75 1 -8 6 -40 10 -70 4 -30 9 -64 11 -75 3 -11 7 -36 10 -55 4 -19 7
-39 9 -45 11 -48 19 -80 37 -139 l21 -69 -22 -18 c-39 -32 -136 -46 -335 -48
l-79 -1 6 -38 c16 -97 38 -147 87 -192 41 -39 144 -101 176 -106 21 -3 254
-19 404 -28 52 -3 133 -8 180 -11 47 -3 130 -8 185 -10 55 -2 177 -7 270 -11
345 -15 1338 -8 1630 11 33 2 110 6 171 10 61 3 135 7 165 10 30 2 104 7 164
10 61 4 126 8 145 10 19 2 76 6 125 10 50 3 106 8 125 10 19 2 69 6 110 10 41
3 91 8 110 10 19 2 69 6 110 9 41 4 86 8 100 10 14 2 54 7 90 11 151 14 177
17 210 20 19 2 64 7 100 10 36 3 79 8 96 10 17 2 57 7 90 10 32 3 77 8 99 10
51 7 96 12 165 20 30 3 89 10 130 15 41 5 102 12 135 15 33 3 74 8 91 10 17 2
57 7 90 10 32 3 70 8 84 10 14 3 50 7 80 10 77 8 133 14 172 19 18 3 60 8 93
11 33 3 71 8 85 10 14 3 54 7 90 10 36 3 79 7 95 9 17 2 62 6 100 10 39 4 88
9 109 12 22 2 70 6 109 9 38 3 88 7 111 9 22 3 70 8 106 11 53 5 69 10 80 28
21 34 212 414 244 487 16 36 43 97 61 135 68 148 213 524 271 705 13 41 27 82
31 90 3 8 7 20 9 25 1 6 21 71 44 145 66 219 142 518 205 810 20 93 49 249 62
325 19 122 42 279 48 325 7 60 13 109 19 168 8 60 15 141 22 227 3 44 7 100 9
125 26 306 26 1054 1 1315 -3 22 -8 78 -11 125 -4 47 -9 99 -10 115 -3 39 -15
143 -20 175 -2 14 -6 48 -9 75 -8 65 -18 135 -22 160 -2 10 -6 37 -9 60 -4 22
-13 78 -21 125 -8 47 -19 108 -24 135 -33 192 -156 722 -189 815 -5 14 -19 59
-31 100 -257 887 -703 1817 -1234 2578 -169 241 -428 579 -551 716 -5 6 -39
45 -75 86 -61 70 -92 105 -185 205 -68 74 -271 279 -377 380 -117 113 -207
194 -399 360 -38 33 -190 156 -228 185 -18 14 -38 30 -45 36 -34 32 -353 263
-496 359 -386 261 -843 521 -1220 694 -246 113 -287 131 -294 131 -3 0 -29 11
-58 24 -120 56 -370 149 -644 241 -126 43 -503 155 -534 160 -8 1 -35 8 -60
14 -25 7 -52 15 -60 16 -8 2 -62 15 -120 28 -116 28 -304 68 -335 72 -17 3
-88 16 -150 28 -11 3 -42 8 -68 11 -27 4 -59 9 -70 12 -12 2 -35 6 -52 9 -16
2 -41 6 -55 9 -14 2 -52 8 -85 11 -33 4 -69 9 -80 10 -11 2 -45 6 -75 10 -30
3 -66 8 -80 10 -14 2 -54 7 -90 10 -36 3 -85 7 -110 9 -42 4 -136 12 -290 23
-76 6 -866 13 -872 8z"/>
<path d="M5027 4624 c-1 -1 -150 -5 -332 -9 -181 -4 -355 -8 -385 -10 -30 -1
-127 -6 -215 -10 -178 -9 -199 -10 -335 -20 -52 -4 -116 -8 -141 -10 -25 -2
-77 -6 -115 -9 -38 -3 -98 -8 -134 -11 -124 -10 -185 -15 -240 -20 -30 -3 -86
-7 -125 -11 -132 -11 -150 -13 -205 -18 -30 -4 -77 -9 -105 -12 -27 -3 -61 -7
-75 -9 -14 -2 -58 -7 -98 -10 -41 -4 -81 -8 -91 -10 -9 -2 -47 -6 -83 -9 -37
-4 -75 -8 -85 -10 -10 -2 -54 -7 -97 -11 -43 -4 -86 -8 -95 -10 -9 -1 -47 -6
-84 -10 -37 -3 -77 -8 -88 -10 -11 -2 -55 -7 -97 -11 -42 -3 -79 -7 -82 -9 -3
-2 -43 -6 -90 -10 -47 -4 -96 -9 -110 -10 -14 -2 -35 -3 -47 -4 -22 -1 -34
-31 -13 -31 5 0 7 -7 4 -15 -4 -8 -1 -15 7 -15 7 0 9 -3 6 -6 -4 -4 3 -20 14
-35 11 -16 17 -29 13 -29 -3 0 -1 -6 5 -13 6 -8 8 -17 4 -20 -3 -4 -2 -7 4 -7
6 0 24 -19 40 -42 50 -75 107 -148 116 -148 4 0 5 -4 2 -10 -3 -5 0 -10 8 -10
16 0 60 -74 49 -85 -4 -5 -2 -6 3 -2 16 8 27 -2 64 -57 19 -27 51 -64 72 -83
22 -20 39 -42 39 -49 0 -8 5 -14 10 -14 6 0 10 -7 10 -15 0 -8 5 -15 12 -15 6
0 9 -3 6 -6 -3 -3 9 -22 28 -42 19 -20 34 -41 34 -47 1 -5 14 -21 30 -35 17
-13 30 -28 30 -33 0 -12 26 -37 39 -37 6 0 11 -6 11 -12 0 -10 3 -9 9 0 6 10
22 12 57 8 73 -9 104 -17 104 -25 0 -7 14 -8 145 -14 44 -2 87 -6 95 -10 8 -3
38 -5 65 -4 28 2 62 -3 76 -10 15 -7 29 -9 33 -6 10 10 107 12 149 3 20 -4 39
-4 42 0 3 4 33 6 67 4 35 -2 104 -6 153 -9 50 -2 107 -6 128 -8 21 -2 40 0 43
5 3 5 10 6 15 3 5 -4 44 -8 86 -10 43 -1 83 -4 88 -5 6 -1 12 -2 15 0 22 8 50
8 50 0 0 -7 7 -7 18 -3 17 8 36 8 154 0 41 -3 56 -1 51 7 -5 8 -3 8 8 0 8 -7
26 -12 42 -13 50 -2 57 -4 57 -14 0 -5 11 -2 24 6 13 9 26 13 29 10 3 -3 43
-7 89 -9 46 -2 121 -7 168 -10 47 -3 105 -6 130 -6 24 0 49 -2 55 -6 5 -3 19
-7 30 -8 11 0 38 -4 60 -9 51 -11 78 -13 90 -6 14 7 65 9 65 2 0 -4 66 -8 148
-9 81 -2 163 -5 182 -7 89 -10 111 -11 116 -4 3 6 33 5 42 -1 1 -2 6 -3 11 -4
5 0 12 -4 16 -7 3 -4 24 -3 46 2 23 5 60 7 82 3 23 -3 87 -8 142 -10 55 -2
143 -6 195 -9 122 -7 162 -7 230 -2 30 3 60 2 65 -2 6 -5 72 -8 148 -7 75 1
137 -2 137 -7 0 -4 12 -4 26 -1 35 9 69 9 132 0 50 -8 64 -18 41 -31 -18 -12
-69 -12 -69 -1 0 6 -4 5 -9 -3 -6 -9 -24 -14 -45 -13 -20 1 -36 -2 -36 -6 0
-5 -17 -8 -37 -7 -21 0 -46 -3 -55 -7 -10 -5 -20 -4 -23 3 -4 6 -14 7 -24 4
-9 -4 -30 -8 -48 -9 -18 -1 -35 -5 -39 -9 -4 -4 -13 -2 -20 4 -9 7 -19 7 -32
0 -10 -5 -27 -10 -38 -10 -46 -1 -135 -10 -143 -15 -10 -6 -105 -16 -201 -20
-30 -2 -65 -6 -77 -10 -13 -4 -23 -3 -23 2 0 9 -25 8 -130 -4 -25 -2 -76 -7
-115 -10 -38 -3 -82 -9 -97 -14 -16 -5 -28 -6 -28 -2 0 4 -11 7 -25 7 -14 0
-25 -2 -25 -5 0 -3 -10 -5 -22 -6 -64 -3 -104 -8 -113 -15 -6 -4 -31 -6 -55
-5 -25 2 -62 -3 -83 -10 -29 -10 -44 -11 -59 -3 -12 6 -18 7 -14 1 3 -6 -27
-10 -82 -10 -48 -1 -98 -4 -112 -7 -14 -3 -57 -7 -96 -8 -39 -1 -78 -8 -86
-15 -8 -6 -18 -9 -22 -5 -9 10 -66 11 -66 1 0 -4 -10 -7 -22 -7 -13 0 -52 -4
-88 -10 -61 -10 -104 -14 -290 -26 -83 -6 -108 -9 -130 -19 -8 -3 -66 -7 -127
-9 -62 -1 -113 -5 -113 -9 0 -4 -8 -7 -17 -7 -10 0 -40 -3 -68 -6 -27 -3 -73
-7 -102 -8 -28 -1 -49 -5 -47 -9 2 -3 0 -9 -6 -13 -6 -3 -13 1 -16 9 -5 14 -8
14 -27 1 -11 -8 -30 -12 -42 -9 -14 3 -28 -3 -45 -20 -13 -15 -30 -26 -37 -26
-8 0 -16 -7 -19 -15 -4 -8 -10 -12 -15 -9 -5 3 -9 2 -7 -3 1 -4 -6 -25 -15
-47 -19 -43 -23 -96 -7 -96 6 0 10 -5 10 -10 0 -19 24 -37 42 -32 10 2 20 -2
24 -12 7 -19 84 -23 84 -5 0 8 4 8 13 2 6 -5 26 -10 42 -11 17 -1 41 -5 55 -8
29 -6 76 -6 176 2 44 4 79 2 92 -5 14 -8 23 -8 27 -1 4 7 12 7 18 2 7 -4 47
-8 90 -7 42 0 77 -2 77 -5 0 -3 26 -6 58 -7 147 -6 331 -19 412 -30 25 -3 79
-6 120 -7 41 0 80 -4 87 -9 6 -4 14 -3 18 3 4 6 12 7 18 3 18 -11 57 -11 57 0
0 6 5 6 13 0 14 -11 47 -11 65 0 6 5 12 4 12 -1 0 -5 21 -10 48 -10 119 -4
152 -6 152 -12 0 -4 21 -6 48 -6 26 1 54 -5 64 -12 11 -10 18 -10 23 -2 5 8
11 8 21 -1 11 -9 14 -9 14 0 0 7 5 9 11 5 6 -3 43 -8 83 -10 39 -2 85 -6 101
-9 17 -4 65 -7 107 -8 43 -1 78 -4 78 -7 0 -3 17 -6 38 -7 20 -1 71 -5 112 -9
41 -4 105 -7 143 -6 37 1 67 -2 67 -6 0 -4 21 -7 48 -8 26 0 76 -3 112 -7 73
-9 74 -9 115 -4 17 2 35 0 41 -5 6 -4 25 -6 42 -4 18 2 32 -1 32 -6 0 -5 5 -6
10 -3 6 3 10 1 10 -6 0 -8 4 -8 13 -1 7 5 33 7 65 3 28 -4 52 -4 52 1 0 5 9 4
20 -2 11 -6 50 -12 85 -12 36 -1 65 -5 65 -10 0 -11 23 -6 32 7 5 6 8 6 8 -1
0 -7 17 -10 45 -9 29 2 45 -1 45 -8 0 -7 5 -5 10 3 5 8 10 10 10 4 0 -6 15
-10 35 -9 19 2 35 -1 35 -4 0 -4 19 -8 42 -9 23 -1 45 -7 49 -13 5 -8 8 -8 13
0 10 15 102 13 147 -3 22 -8 44 -9 58 -4 13 4 27 5 33 2 5 -3 60 -7 121 -9 62
-1 112 -4 112 -5 0 -3 68 -10 150 -14 39 -2 88 -7 110 -12 22 -4 49 -9 60 -10
11 -1 20 -3 20 -4 0 -2 37 -9 62 -12 33 -3 36 -25 5 -30 -15 -2 -71 -3 -125
-2 -53 1 -97 -1 -97 -5 0 -3 -46 -6 -103 -5 -56 0 -108 -4 -114 -9 -7 -5 -22
-7 -32 -4 -11 3 -22 0 -25 -7 -3 -7 -5 -6 -5 3 -1 11 -4 11 -16 1 -8 -7 -21
-10 -30 -7 -8 4 -20 1 -27 -6 -7 -7 -35 -12 -63 -13 -27 0 -63 -4 -80 -9 -25
-6 -110 -9 -150 -5 -5 1 -26 -2 -45 -6 -19 -4 -55 -8 -80 -10 -25 -2 -61 -6
-80 -8 -84 -12 -101 -13 -106 -5 -3 5 -10 7 -15 3 -15 -9 -159 -11 -159 -2 0
5 -8 5 -17 0 -17 -8 -55 -13 -110 -15 -13 -1 -23 -4 -23 -8 0 -4 -9 -7 -20 -6
-11 1 -20 5 -20 10 0 5 -8 6 -17 2 -10 -4 -29 -9 -43 -10 -14 -2 -41 -6 -60
-10 -19 -3 -73 -8 -120 -11 -47 -2 -101 -6 -120 -8 -92 -10 -220 -19 -262 -20
-27 0 -48 -4 -48 -9 0 -4 -6 -5 -12 0 -16 9 -41 10 -48 2 -3 -4 -34 -10 -70
-13 -35 -4 -66 -9 -68 -11 -3 -2 -13 0 -23 5 -10 6 -20 6 -23 1 -3 -4 -21 -7
-41 -4 -20 2 -35 -1 -35 -7 0 -6 -8 -5 -20 2 -14 9 -23 10 -28 3 -4 -5 -24
-10 -44 -10 -21 1 -38 -1 -38 -5 0 -3 -24 -5 -53 -6 -28 0 -61 -3 -73 -7 -16
-6 -23 -1 -35 25 -14 33 -37 43 -51 23 -5 -7 -8 -6 -8 1 0 9 -9 8 -35 0 -19
-7 -38 -15 -41 -19 -4 -4 -24 -7 -44 -7 -21 0 -53 -6 -71 -14 -19 -7 -42 -12
-51 -11 -10 2 -20 -1 -24 -6 -3 -5 -15 -9 -26 -9 -12 0 -36 -15 -54 -34 -25
-26 -32 -40 -28 -60 3 -16 0 -26 -8 -26 -6 0 -3 -8 8 -19 10 -10 22 -17 27
-14 4 2 7 -1 7 -6 0 -6 6 -11 14 -11 8 0 21 -8 28 -18 7 -10 23 -17 36 -16 12
1 22 -3 22 -7 0 -5 7 -9 15 -9 9 0 19 -10 24 -23 9 -24 19 -26 32 -5 5 7 9 9
9 3 0 -9 29 -13 108 -16 20 -1 27 -10 23 -33 -3 -13 20 -36 30 -30 5 3 9 0 9
-6 0 -8 6 -8 20 0 11 6 20 7 20 2 0 -13 99 -12 106 0 4 7 9 6 13 0 4 -6 26
-12 49 -13 23 -2 42 -6 42 -9 0 -10 34 -8 47 2 7 5 18 6 24 2 13 -7 82 -12
227 -15 45 -1 82 -5 82 -10 0 -4 28 -7 63 -7 34 0 64 -1 67 -2 3 -1 37 -4 75
-5 39 -2 83 -6 99 -9 16 -3 34 -2 39 1 13 8 77 11 77 4 0 -4 45 -6 100 -6 56
0 100 -4 100 -9 0 -6 4 -6 10 0 9 9 81 4 138 -9 12 -3 22 -2 22 3 0 5 17 8 38
6 20 -3 37 -5 37 -6 0 -1 17 -3 38 -5 20 -1 37 2 37 6 0 5 12 7 28 3 45 -10
91 -14 207 -18 140 -6 197 -14 207 -29 4 -7 8 -7 8 -2 0 15 44 17 77 3 31 -12
69 -11 96 3 9 6 17 6 17 2 0 -4 21 -9 48 -10 26 -1 62 -4 80 -6 18 -3 35 -1
37 4 3 4 18 5 33 2 15 -3 35 -5 45 -5 9 0 17 -2 17 -6 0 -7 105 -13 307 -15
68 -1 123 -5 123 -9 0 -4 8 -7 18 -7 135 0 182 -4 182 -14 0 -9 2 -9 8 0 5 7
13 9 21 4 8 -5 28 -5 45 0 17 5 40 6 51 2 11 -4 44 -6 73 -5 28 1 52 -2 52 -7
0 -6 10 -7 23 -4 24 7 183 7 234 1 40 -5 52 -16 27 -24 -10 -3 -31 -12 -46
-20 -16 -8 -28 -12 -28 -8 0 4 -6 0 -12 -9 -16 -21 -120 -57 -165 -57 -18 0
-33 -3 -33 -7 0 -5 -10 -9 -22 -9 -13 -1 -41 -3 -63 -4 -22 -2 -45 -7 -51 -11
-6 -5 -24 -11 -40 -13 -16 -2 -36 -6 -44 -9 -13 -5 -30 -8 -115 -24 -11 -2
-31 -5 -45 -7 -14 -2 -25 -5 -25 -6 0 -4 -75 -17 -154 -24 -24 -3 -47 -8 -50
-13 -3 -4 -22 -8 -41 -8 -19 0 -43 -3 -53 -8 -20 -9 -112 -28 -139 -28 -10 0
-18 -3 -18 -7 0 -8 -18 -11 -83 -15 -20 -1 -37 -6 -37 -11 0 -4 -7 -6 -15 -2
-8 3 -15 1 -15 -4 0 -6 -9 -10 -20 -10 -11 0 -20 -4 -20 -9 0 -5 -13 -7 -30
-5 -20 4 -30 1 -30 -7 0 -7 -3 -10 -6 -6 -4 3 -23 0 -43 -8 -20 -7 -58 -16
-84 -19 -27 -3 -54 -9 -60 -13 -6 -4 -20 -8 -32 -9 -34 -4 -73 -22 -95 -44
-16 -16 -24 -18 -41 -10 -11 6 -29 8 -42 3 -12 -4 -31 -8 -42 -8 -11 0 -26 -4
-32 -8 -8 -5 -13 -3 -13 5 0 10 -2 10 -9 -1 -5 -8 -16 -11 -24 -8 -8 3 -18 3
-21 -1 -4 -3 -18 -8 -32 -9 -38 -6 -81 -36 -78 -55 1 -10 -2 -18 -8 -18 -7 0
-7 -5 1 -13 6 -8 12 -23 14 -35 4 -30 36 -56 72 -61 17 -1 32 -6 35 -10 6 -7
35 -11 110 -14 30 -2 60 -6 67 -10 6 -4 15 -2 19 4 5 8 8 8 13 0 4 -6 32 -14
62 -17 70 -7 72 -7 84 -4 18 6 69 -13 90 -32 11 -11 21 -14 23 -8 2 5 8 7 14
4 6 -4 23 -9 37 -10 31 -5 65 -12 69 -14 1 -2 10 -3 20 -4 9 -1 22 -5 29 -9 6
-4 14 -1 16 5 4 9 8 10 14 3 4 -6 17 -10 28 -10 11 0 25 -3 31 -8 14 -9 45
-16 93 -22 19 -2 37 -7 40 -12 3 -4 15 -9 26 -9 76 -6 137 -22 129 -35 -3 -5
5 -5 17 -1 27 10 69 4 69 -10 0 -6 6 -6 14 1 9 8 16 8 20 2 4 -6 13 -8 21 -4
8 3 15 1 15 -5 0 -5 14 -8 30 -7 17 1 33 -1 35 -6 3 -4 14 -6 25 -4 11 2 20 1
20 -3 0 -4 12 -8 28 -8 66 -3 102 -8 102 -13 0 -3 17 -7 38 -8 78 -5 118 -10
132 -15 8 -4 22 -6 30 -6 17 -1 98 -8 185 -18 33 -4 72 -8 88 -8 15 -1 27 -4
27 -7 0 -8 32 -5 47 4 6 4 22 3 36 -2 14 -5 28 -7 31 -4 3 4 6 2 6 -4 0 -5 7
-10 15 -10 8 0 15 4 15 8 0 4 10 6 23 3 31 -7 109 -16 127 -15 14 1 95 1 130
0 8 0 36 1 61 2 25 1 50 0 55 -4 17 -10 378 -4 387 8 5 7 9 6 15 -1 5 -8 64
-10 192 -8 102 2 194 4 205 5 11 1 40 1 65 -1 25 -1 56 1 70 5 14 3 48 8 75
10 28 2 52 4 55 6 3 1 9 1 14 0 5 -1 13 4 18 11 7 9 11 10 14 2 4 -9 21 -7 62
5 31 9 74 16 95 14 20 -2 37 0 37 5 0 4 12 8 28 9 35 0 64 7 80 16 6 5 12 5
12 1 0 -4 8 1 19 10 10 9 28 18 40 19 11 1 21 5 21 10 0 4 4 6 9 2 5 -3 12 -1
16 5 3 5 15 10 26 10 10 0 19 5 19 10 0 6 6 10 14 10 28 0 50 45 41 85 -5 26
-63 49 -82 34 -7 -7 -13 -7 -13 -2 0 5 -6 10 -12 11 -47 4 -74 9 -83 14 -6 3
-42 6 -81 7 -39 1 -86 6 -103 11 -17 5 -34 9 -36 9 -3 1 -6 1 -7 2 -2 0 -39 2
-83 3 -44 2 -80 4 -80 6 0 1 -28 3 -62 5 -33 1 -67 6 -75 11 -15 9 -156 31
-240 37 -16 1 -28 6 -28 10 0 5 -16 7 -35 4 -19 -3 -35 -2 -35 3 0 4 -21 6
-47 5 -27 -1 -52 1 -58 4 -5 3 -23 6 -40 7 -75 3 -126 16 -147 37 -17 17 -37
24 -73 26 -68 3 -79 18 -19 25 16 2 41 7 56 11 19 5 32 2 44 -9 8 -9 20 -14
25 -11 5 4 9 1 9 -5 0 -6 12 -4 31 5 17 9 37 14 44 11 7 -2 16 -2 19 2 10 9
33 12 116 16 41 2 75 5 75 6 0 1 14 4 30 5 28 3 49 6 135 20 19 3 51 6 70 6
19 1 43 5 54 11 14 7 17 7 11 -2 -5 -9 -2 -10 11 -3 11 5 47 8 82 7 34 -1 65
2 68 7 2 5 15 4 27 0 14 -5 30 -5 40 0 9 6 17 7 17 3 0 -3 7 -1 15 6 8 7 22
10 30 6 8 -3 15 -2 15 3 0 4 15 7 33 6 17 -1 40 2 49 6 10 6 19 5 23 -1 5 -8
11 -8 20 0 8 6 44 13 82 15 71 4 140 12 183 22 14 3 43 7 65 8 22 2 40 4 40 5
0 0 24 3 53 5 30 2 56 6 59 9 3 3 14 1 24 -4 11 -7 20 -7 24 0 3 5 12 7 19 4
8 -3 17 0 21 6 5 8 11 8 21 -1 8 -6 14 -8 14 -3 0 5 19 10 43 12 23 1 62 3 87
5 25 1 50 5 55 8 6 4 35 7 66 8 30 1 66 3 79 6 13 2 51 5 84 6 34 1 65 4 70 7
5 3 26 7 45 8 20 1 56 5 81 8 25 3 80 8 123 11 43 2 86 9 95 14 10 5 24 6 32
1 7 -4 21 -7 30 -5 9 2 41 6 71 10 30 4 61 10 69 14 8 4 31 7 50 5 19 -1 46 3
60 8 14 6 41 12 60 15 43 5 67 9 100 18 14 3 57 8 95 10 76 4 94 7 111 18 6 3
14 3 18 0 12 -12 40 -12 54 -1 9 8 16 8 23 1 7 -7 20 -6 42 5 27 14 33 14 57
0 24 -14 30 -14 55 0 18 9 30 11 32 5 3 -7 21 -7 55 -1 35 7 53 6 58 -1 4 -7
15 -2 29 13 16 17 31 23 57 21 19 -1 34 1 34 4 0 3 19 6 43 6 23 0 59 5 80 12
20 7 37 10 37 7 0 -3 12 4 26 15 15 11 30 19 34 16 3 -2 14 12 23 31 17 34 14
84 -4 84 -5 0 -9 6 -9 14 0 17 -47 49 -60 41 -6 -3 -10 -2 -10 4 0 5 -28 8
-65 7 -36 -1 -65 2 -65 6 0 12 -28 9 -53 -6 -12 -7 -35 -11 -52 -9 -16 2 -43
5 -60 7 -16 2 -55 7 -85 12 -30 4 -58 7 -62 6 -5 -1 -8 3 -8 9 0 8 -4 8 -13 0
-9 -7 -17 -7 -23 -1 -14 14 -87 16 -91 3 -3 -8 -14 -8 -34 -3 -16 5 -29 5 -29
0 0 -4 -8 -7 -17 -5 -10 2 -18 4 -18 5 0 1 -27 3 -60 5 -33 1 -60 3 -60 4 0 2
-83 4 -185 5 -102 2 -196 6 -210 9 -51 13 -93 15 -115 7 -13 -5 -26 -6 -30 -2
-4 4 -16 7 -28 8 -12 0 -38 4 -57 8 -38 8 -159 15 -317 19 -56 1 -104 5 -108
9 -3 3 -20 4 -36 1 -16 -2 -29 0 -29 5 0 8 -202 15 -395 13 -98 -1 -240 5
-240 9 0 3 -41 9 -82 11 -24 2 -43 6 -43 9 0 3 -22 6 -50 6 -27 -1 -50 2 -50
5 0 4 -10 7 -22 7 -48 -1 -249 22 -261 29 -7 4 -34 8 -62 10 -27 1 -66 5 -85
8 -19 4 -45 7 -57 8 -13 1 -23 6 -23 11 0 4 -9 6 -20 3 -10 -3 -20 -1 -22 5
-2 5 -19 -1 -38 -14 -30 -21 -40 -22 -70 -13 -19 5 -41 14 -47 18 -8 5 -13 4
-13 -2 0 -14 -54 -7 -81 10 l-23 16 29 19 c17 10 33 22 36 27 3 4 15 9 26 11
11 3 39 13 62 25 23 11 51 18 61 16 11 -2 22 1 25 6 4 5 11 6 17 3 14 -9 140
-13 153 -5 6 3 31 6 56 7 25 1 58 4 73 8 17 4 26 2 26 -6 0 -9 3 -9 12 0 7 7
34 12 61 12 26 0 57 5 68 10 13 8 19 7 19 0 0 -7 7 -8 18 -2 9 4 40 7 67 6 28
0 54 1 60 5 20 11 155 9 155 -3 0 -7 3 -7 8 -1 4 6 45 11 92 12 109 3 218 10
227 16 7 5 66 13 153 22 19 2 58 7 85 11 28 3 93 7 145 9 52 1 103 5 112 9 9
4 23 4 30 0 15 -9 68 -13 68 -4 0 6 18 8 200 14 249 10 297 13 308 20 19 12
52 16 52 6 0 -4 8 -7 18 -5 9 2 17 4 17 5 0 2 61 3 135 5 74 1 164 5 200 9 36
4 88 10 115 12 28 2 70 7 95 9 82 10 145 10 159 0 11 -7 13 -7 8 1 -5 8 10 11
49 10 30 -1 57 1 59 4 2 3 61 6 132 5 70 0 134 3 140 8 7 5 20 7 28 3 8 -3 15
-1 15 4 0 5 12 5 28 1 15 -4 43 -6 62 -5 42 3 115 12 115 15 0 2 21 6 75 14
119 18 102 16 180 15 25 0 55 2 67 4 13 3 25 1 27 -3 3 -4 27 -5 53 -1 26 3
66 4 88 3 115 -8 145 -9 145 -2 0 4 9 6 20 4 11 -2 20 0 20 5 0 4 8 7 18 5 9
-1 22 2 28 6 6 5 60 12 120 15 100 5 159 10 159 14 0 3 43 12 99 20 32 4 63
13 69 19 5 5 17 7 26 2 9 -4 30 -6 46 -4 17 2 44 5 60 7 48 6 81 23 102 53 25
35 35 93 16 93 -7 0 -13 5 -13 11 0 13 -21 33 -38 37 -7 1 -23 12 -35 23 -12
11 -23 15 -25 9 -2 -5 -7 -8 -12 -5 -9 6 -69 16 -85 15 -5 -1 -52 -3 -104 -5
-51 -2 -98 -8 -104 -14 -13 -13 -47 -15 -47 -3 0 4 -16 6 -35 4 -19 -2 -35 0
-35 4 0 12 -123 11 -132 -1 -5 -6 -12 -4 -18 5 -7 11 -10 11 -10 2 0 -9 -5
-10 -19 -3 -10 6 -21 7 -25 4 -3 -3 -6 -2 -6 4 0 5 -7 10 -15 10 -8 0 -15 -3
-15 -7 0 -4 -34 -6 -75 -6 -41 0 -75 3 -75 7 0 4 -8 6 -17 4 -10 -2 -18 -4
-18 -5 0 -6 -41 -8 -49 -2 -6 4 -36 7 -66 8 -148 5 -200 5 -210 -1 -5 -3 -10
-2 -10 2 0 10 -390 10 -407 0 -6 -4 -14 -1 -17 5 -5 11 -7 11 -12 0 -3 -6 -11
-9 -17 -5 -7 4 -37 9 -67 10 -30 2 -86 5 -125 8 -38 3 -99 7 -135 9 -36 2 -65
5 -65 6 0 6 -94 5 -117 -1 -15 -4 -30 -4 -32 0 -5 7 -47 10 -251 15 -55 2
-101 4 -102 5 -7 6 -132 3 -142 -3 -6 -4 -11 -4 -11 1 0 4 -84 9 -188 11 -167
2 -237 6 -237 12 0 3 -77 7 -227 11 -60 2 -108 6 -108 9 0 3 -55 6 -123 7
-156 3 -262 13 -283 26 -8 4 -113 18 -151 20 -7 0 -13 5 -13 11 0 7 -3 7 -8 1
-9 -13 -62 -14 -62 -2 0 5 -6 4 -13 -2 -8 -6 -17 -7 -21 -3 -4 4 -12 8 -17 8
-5 1 -10 2 -11 3 -2 2 -25 4 -53 6 -27 1 -61 7 -73 12 -21 8 -22 11 -8 22 8 7
30 14 48 15 18 0 36 5 40 10 3 5 14 10 25 11 10 1 27 6 38 12 11 6 30 9 43 8
12 -1 22 2 22 6 0 4 9 6 20 4 11 -2 22 0 25 5 3 5 12 7 20 3 8 -3 15 0 15 5 0
6 11 8 28 5 36 -8 118 -5 140 5 9 4 47 8 84 7 38 0 68 3 68 6 0 4 14 5 30 4
17 -1 33 1 35 5 3 5 30 9 60 9 30 0 58 2 63 5 4 2 14 1 22 -4 8 -5 19 -5 26 1
7 5 29 6 57 0 34 -6 52 -5 64 4 12 9 24 10 35 4 10 -6 19 -5 23 1 3 6 17 7 31
4 13 -3 24 -2 24 2 0 9 16 11 142 16 43 2 78 7 78 12 0 5 6 3 13 -3 8 -6 16
-8 19 -5 4 3 44 6 90 8 46 1 89 5 94 9 6 3 48 7 93 8 45 1 84 5 87 10 3 5 13
5 23 0 10 -6 23 -6 31 -1 8 5 22 4 33 -1 12 -7 22 -7 31 0 9 7 16 7 25 -2 7
-7 14 -8 19 -2 4 6 36 11 72 12 114 5 155 9 168 17 6 4 12 4 12 0 0 -3 7 -1
15 6 8 7 15 9 15 4 0 -11 152 -10 168 0 7 4 16 5 21 1 5 -3 13 -1 16 5 5 8 11
8 19 1 7 -6 16 -8 20 -4 10 11 90 22 174 26 23 1 42 4 42 7 0 3 21 5 48 4 26
0 52 2 57 6 13 9 15 9 175 14 74 2 176 7 225 11 50 4 153 8 230 9 77 1 146 5
154 10 9 6 12 5 8 -1 -4 -7 12 -9 46 -8 28 1 52 4 52 5 0 1 36 4 80 6 79 4
140 10 140 13 0 1 34 4 77 6 91 5 101 7 110 20 5 6 8 6 8 -2 0 -7 10 -10 28
-6 53 10 72 10 72 1 0 -5 5 -6 11 -3 6 4 40 9 77 11 37 3 101 7 142 9 157 10
189 13 199 20 6 3 11 1 11 -4 0 -8 6 -7 19 1 13 8 24 9 33 2 7 -6 40 -8 73 -6
33 2 80 4 105 6 25 1 50 4 55 7 21 11 235 18 235 8 0 -5 7 -6 15 -3 8 4 12 10
9 15 -3 5 0 10 5 10 20 3 26 4 36 10 6 4 25 6 43 5 17 0 32 2 32 5 0 4 12 7
28 6 36 0 90 11 114 24 10 6 24 9 30 7 7 -3 20 4 30 14 10 10 25 18 35 18 20
0 75 59 66 73 -3 6 -1 7 5 3 6 -3 17 3 25 14 7 11 17 17 22 12 5 -4 5 -1 1 5
-4 7 0 23 8 35 18 25 21 64 6 73 -5 3 -10 15 -10 26 0 16 -4 19 -21 14 -15 -5
-22 -2 -26 13 -5 19 -7 19 -41 6 -21 -8 -44 -18 -52 -22 -19 -10 -132 -8 -148
2 -7 4 -12 2 -12 -3 0 -6 -14 -9 -32 -7 -18 3 -33 5 -33 6 0 1 -9 3 -20 4 -11
2 -34 6 -52 10 -17 4 -34 3 -37 -2 -3 -5 -36 -8 -73 -6 -85 5 -271 12 -383 15
-47 1 -95 6 -106 10 -12 4 -25 5 -29 1 -10 -11 -145 -10 -152 1 -3 5 -9 3 -14
-4 -7 -11 -9 -11 -9 -1 0 9 -6 10 -17 4 -24 -11 -103 -8 -129 6 -12 6 -24 9
-27 6 -3 -3 -25 -5 -49 -4 -23 0 -91 1 -150 2 -60 1 -108 4 -108 7 0 3 -44 7
-98 8 -187 5 -222 7 -222 18 0 6 -3 7 -8 0 -8 -11 -132 -15 -132 -5 0 4 -20 4
-45 0 -25 -4 -48 -4 -51 -1 -10 10 -289 15 -305 5 -5 -3 -9 -2 -9 3 0 4 -60 8
-132 8 -73 1 -173 3 -223 6 -52 4 -95 2 -102 -4 -7 -5 -13 -6 -13 -1 0 5 -25
9 -55 9 -30 0 -55 -4 -55 -8 0 -5 -5 -5 -12 -1 -11 7 -191 13 -480 17 -71 1
-128 5 -128 9 0 9 -29 6 -45 -3 -10 -7 -23 -5 -62 7 -15 4 -23 2 -23 -6 0 -9
-4 -9 -12 -2 -8 6 -57 9 -123 6 -214 -7 -230 -6 -255 4 -14 5 -33 19 -43 29
-10 11 -28 20 -40 19 -30 -2 -100 19 -104 30 -4 11 75 36 122 40 17 1 31 3 33
4 1 2 5 3 10 5 4 1 14 5 22 8 8 4 26 8 40 9 14 2 31 7 39 12 11 7 12 6 6 -5
-7 -11 -6 -12 6 -2 11 9 19 9 26 2 6 -6 24 -11 42 -11 17 -1 31 -5 31 -10 0
-5 10 -3 22 3 12 6 40 13 62 16 47 4 91 10 91 13 0 2 59 8 120 13 17 1 35 5
40 8 6 3 35 5 65 4 30 0 58 4 62 9 4 6 11 6 20 0 11 -9 33 -11 41 -4 10 8 61
9 71 1 7 -6 15 -8 19 -5 3 3 29 8 59 11 29 3 54 9 56 14 2 5 11 5 20 1 15 -7
37 -8 45 -2 1 1 36 3 77 5 80 4 99 7 116 17 12 8 34 6 52 -5 6 -5 12 -4 12 0
0 5 35 10 78 11 90 3 113 5 129 15 6 4 14 3 17 -1 6 -10 42 -9 52 1 4 3 15 2
25 -4 11 -5 19 -6 19 -1 0 5 6 9 13 10 18 1 72 10 72 12 0 1 36 3 80 5 97 5
137 9 150 15 6 3 31 5 58 5 26 0 47 2 47 6 0 3 21 5 48 3 26 -1 55 2 64 7 10
6 19 5 23 -1 3 -5 11 -7 18 -5 30 10 88 12 93 3 3 -5 12 -4 20 3 11 9 14 9 14
0 0 -7 4 -10 9 -6 13 7 97 14 251 21 69 2 130 5 135 6 6 0 18 -3 28 -7 9 -4
17 -3 17 2 0 9 18 11 167 15 57 2 103 6 103 10 0 8 21 5 37 -5 6 -4 14 -3 17
2 4 5 17 8 31 6 14 -1 25 1 25 5 0 4 20 4 45 0 25 -4 45 -3 45 2 0 9 36 5 46
-5 4 -4 12 -3 18 2 6 5 40 12 76 15 36 4 83 9 105 12 79 10 126 10 131 2 3 -5
11 -5 17 -1 7 4 39 8 72 8 33 1 65 4 70 7 6 3 38 5 73 4 34 -1 62 1 62 4 0 3
15 6 33 7 17 0 69 3 114 5 45 2 85 7 89 11 4 3 14 2 24 -3 10 -5 21 -6 25 -2
3 4 37 8 73 8 37 1 75 5 85 9 10 4 17 3 17 -5 0 -6 5 -8 13 -3 6 4 107 8 222
9 207 1 290 8 301 25 3 5 18 9 34 9 16 0 35 8 42 18 7 10 31 25 53 33 28 10
46 26 62 54 31 56 41 69 168 210 15 17 33 42 41 58 15 27 15 27 -14 22 -16 -3
-60 -7 -97 -10 -37 -4 -85 -8 -108 -10 -50 -6 -160 -17 -202 -21 -16 -1 -30
-3 -30 -4 0 0 -22 -3 -50 -5 -46 -4 -95 -9 -185 -20 -19 -2 -60 -7 -90 -10
-30 -4 -66 -8 -80 -10 -14 -2 -54 -6 -90 -10 -36 -4 -76 -8 -90 -10 -14 -2
-50 -7 -80 -10 -30 -3 -73 -8 -95 -11 -22 -2 -62 -6 -90 -9 -27 -3 -66 -8 -85
-11 -19 -2 -55 -6 -80 -9 -48 -4 -122 -12 -180 -20 -59 -8 -137 -16 -280 -30
-36 -3 -76 -8 -90 -10 -14 -2 -59 -7 -100 -11 -41 -3 -86 -8 -100 -9 -14 -1
-59 -5 -100 -9 -41 -4 -86 -9 -100 -11 -14 -3 -61 -7 -105 -11 -101 -8 -135
-11 -210 -18 -33 -3 -91 -8 -130 -12 -38 -3 -90 -7 -115 -9 -25 -2 -90 -6
-145 -10 -55 -3 -125 -8 -155 -10 -30 -2 -102 -7 -160 -10 -58 -3 -134 -8
-170 -10 -102 -6 -333 -17 -470 -21 -158 -5 -1037 -5 -1190 0 -237 9 -556 23
-665 31 -38 3 -105 7 -147 10 -73 4 -169 11 -283 20 -27 2 -90 7 -140 10 -49
4 -106 8 -126 10 -19 2 -76 7 -125 10 -49 4 -102 8 -119 10 -16 1 -70 6 -120
10 -49 4 -99 9 -110 11 -11 2 -49 7 -85 10 -36 3 -76 7 -90 9 -14 2 -51 7 -83
10 -32 4 -66 8 -75 10 -9 1 -51 6 -92 10 -41 4 -82 8 -90 10 -8 2 -44 6 -80 9
-36 4 -81 9 -100 11 -39 5 -68 9 -215 25 -55 6 -113 13 -130 15 -16 2 -57 7
-90 10 -33 3 -71 8 -85 10 -14 2 -56 7 -95 11 -38 3 -79 8 -90 10 -10 2 -49 6
-85 10 -36 3 -76 7 -89 9 -14 3 -54 7 -90 10 -36 4 -73 8 -81 10 -8 2 -51 7
-95 11 -44 3 -82 8 -85 9 -3 2 -43 6 -90 10 -47 4 -94 9 -105 11 -11 2 -47 6
-80 9 -33 3 -73 7 -90 9 -16 2 -64 7 -105 11 -127 12 -153 14 -210 20 -30 3
-82 8 -115 10 -33 2 -87 7 -120 10 -115 10 -190 16 -255 20 -36 2 -104 6 -150
10 -178 12 -238 16 -345 21 -60 3 -139 7 -175 9 -124 7 -938 23 -943 19z"/>
</g>
</svg>
