<?xml version="1.0" standalone="no"?>
<!DOCTYPE svg PUBLIC "-//W3C//DTD SVG 20010904//EN"
 "http://www.w3.org/TR/2001/REC-SVG-20010904/DTD/svg10.dtd">
<svg version="1.0" xmlns="http://www.w3.org/2000/svg"
 width="4096.000000pt" height="4096.000000pt" viewBox="0 0 4096.000000 4096.000000"
 preserveAspectRatio="xMidYMid meet">
<metadata>
Created by potrace 1.14, written by Peter Selinger 2001-2017
</metadata>
<g transform="translate(0.000000,4096.000000) scale(0.100000,-0.100000)"
fill="#000000" stroke="none">
<path d="M19919 38476 c-2 -2 -98 -7 -212 -11 -114 -3 -218 -8 -230 -10 -12
-2 -80 -6 -151 -10 -71 -4 -136 -8 -145 -10 -9 -1 -65 -6 -126 -10 -60 -4
-119 -9 -130 -10 -11 -2 -56 -6 -100 -10 -80 -6 -417 -41 -478 -50 -18 -2 -90
-11 -162 -20 -110 -14 -412 -56 -495 -70 -14 -2 -83 -14 -155 -25 -732 -119
-1623 -329 -2355 -556 -190 -59 -678 -222 -805 -269 -954 -351 -1766 -719
-2590 -1174 -115 -64 -217 -120 -226 -126 -9 -5 -35 -20 -58 -33 -259 -142
-956 -582 -1261 -797 -459 -322 -854 -619 -1156 -870 -33 -27 -83 -68 -110
-90 -76 -62 -369 -313 -408 -350 -6 -5 -79 -71 -161 -145 -83 -74 -179 -162
-215 -196 -36 -34 -85 -81 -110 -104 -73 -68 -394 -387 -540 -537 -145 -149
-224 -233 -365 -387 -49 -55 -95 -104 -100 -110 -51 -55 -316 -362 -416 -481
-491 -589 -1002 -1289 -1382 -1895 -99 -157 -407 -672 -467 -780 -29 -52 -62
-111 -73 -130 -112 -198 -356 -671 -505 -980 -222 -461 -473 -1060 -669 -1595
-134 -365 -337 -1000 -422 -1320 -12 -44 -37 -138 -56 -209 -36 -133 -130
-511 -139 -556 -2 -14 -25 -115 -49 -225 -25 -110 -48 -218 -53 -240 -4 -22
-8 -42 -9 -45 -1 -3 -5 -25 -9 -50 -5 -25 -10 -52 -11 -60 -21 -96 -55 -278
-59 -307 -4 -32 -22 -140 -50 -298 -3 -16 -10 -64 -16 -105 -7 -41 -13 -84
-15 -95 -2 -19 -20 -141 -30 -217 -3 -18 -7 -53 -10 -78 -3 -25 -8 -56 -10
-70 -3 -14 -7 -52 -10 -85 -3 -33 -8 -71 -10 -85 -3 -14 -7 -50 -10 -80 -3
-30 -8 -71 -10 -90 -3 -19 -8 -66 -11 -105 -4 -38 -8 -81 -9 -95 -18 -182 -21
-216 -30 -350 -4 -52 -8 -112 -11 -133 -2 -21 -6 -86 -9 -145 -4 -59 -8 -136
-10 -172 -26 -447 -26 -1460 0 -1815 1 -22 6 -92 9 -155 4 -63 9 -137 11 -165
2 -27 6 -79 9 -115 13 -152 18 -217 21 -245 1 -16 6 -66 9 -110 4 -44 9 -91
11 -105 2 -14 6 -54 10 -90 3 -36 8 -76 10 -90 2 -14 7 -54 10 -90 3 -36 8
-76 10 -90 3 -14 7 -43 9 -65 9 -76 16 -127 21 -154 2 -14 7 -46 10 -71 6 -57
16 -129 21 -155 2 -11 7 -40 10 -65 3 -25 7 -52 9 -60 3 -8 9 -44 14 -80 15
-102 69 -408 85 -487 9 -40 18 -87 21 -105 3 -18 19 -98 36 -178 16 -80 31
-154 33 -165 20 -97 118 -514 152 -645 30 -118 47 -181 69 -260 14 -52 27
-103 30 -112 8 -37 129 -444 173 -588 101 -324 367 -1074 432 -1215 5 -11 25
-63 46 -115 20 -52 45 -113 54 -135 10 -22 28 -65 40 -95 186 -456 581 -1275
817 -1695 25 -44 63 -114 86 -155 60 -114 41 -106 202 -85 17 2 57 7 90 10 33
3 71 8 85 10 14 2 56 6 93 10 37 3 76 8 85 9 9 2 49 7 87 11 39 3 84 8 100 10
17 2 57 7 90 11 33 3 71 7 85 9 14 1 54 6 90 9 36 4 76 9 90 11 14 2 54 7 90
10 36 3 79 8 95 10 17 2 75 9 130 15 55 6 114 13 130 15 45 6 113 13 180 20
33 3 76 8 95 11 19 3 60 7 90 10 30 2 89 9 130 14 41 5 100 12 130 15 80 7
151 15 180 20 14 2 56 7 93 10 37 4 76 8 85 10 9 1 46 6 82 9 36 3 81 8 100
11 19 2 60 6 90 10 53 5 110 12 175 20 17 2 55 7 85 10 30 3 71 7 90 10 19 3
69 7 110 10 104 7 209 15 250 20 19 2 78 7 130 10 52 3 106 8 120 10 14 2 66
7 115 10 50 4 110 8 135 10 25 2 77 6 115 10 39 3 95 7 125 10 30 2 89 7 130
10 41 3 98 8 125 10 28 3 82 7 120 10 69 5 114 9 265 20 41 4 98 8 125 11 102
8 287 19 504 29 53 2 148 7 211 10 63 3 156 8 205 10 50 2 140 6 200 10 609
34 2335 40 3000 10 50 -2 162 -7 250 -10 88 -4 183 -8 210 -10 114 -7 267 -15
370 -21 61 -3 142 -7 180 -10 39 -2 120 -6 180 -9 61 -3 133 -7 160 -10 28 -2
93 -7 145 -10 52 -4 115 -8 140 -10 25 -3 83 -7 130 -10 47 -3 105 -8 130 -10
25 -2 88 -7 140 -10 52 -3 117 -8 144 -11 27 -2 75 -6 105 -9 31 -2 74 -6 96
-9 37 -4 117 -11 235 -21 77 -7 173 -16 210 -21 19 -2 69 -7 110 -10 41 -3 91
-7 110 -9 19 -2 69 -7 110 -10 41 -3 86 -8 100 -10 14 -2 54 -7 90 -10 36 -3
79 -8 95 -10 17 -2 59 -6 95 -10 36 -3 81 -8 100 -10 19 -3 58 -7 85 -10 92
-8 160 -16 185 -20 14 -2 57 -7 95 -10 39 -3 81 -8 95 -10 14 -2 52 -6 85 -10
33 -3 78 -8 100 -10 22 -3 63 -7 90 -10 28 -3 66 -7 85 -10 42 -5 107 -13 175
-20 28 -3 66 -7 85 -10 55 -7 110 -14 180 -20 36 -4 79 -9 95 -11 17 -2 55 -6
85 -9 30 -3 71 -8 90 -10 19 -3 51 -7 70 -9 197 -23 232 -27 280 -31 25 -3 65
-7 90 -11 25 -3 65 -7 90 -10 25 -2 59 -6 75 -8 17 -3 61 -8 100 -12 38 -3 77
-7 87 -9 9 -2 48 -7 85 -10 37 -4 79 -8 93 -10 14 -2 52 -7 85 -10 33 -4 71
-8 85 -10 14 -2 70 -9 125 -15 55 -6 116 -13 135 -15 19 -3 60 -7 90 -10 30
-3 71 -8 90 -10 65 -9 156 -19 255 -30 116 -12 232 -26 257 -31 24 -5 28 -2
37 33 10 36 42 195 55 273 3 19 8 44 10 55 2 11 7 43 10 70 4 28 9 64 11 80 2
17 7 55 10 86 l6 55 -58 18 c-98 31 -217 93 -271 141 -50 45 -96 122 -106 181
-3 16 -8 40 -11 53 -2 14 -5 64 -7 112 l-2 87 -80 32 c-226 91 -364 165 -504
267 -191 140 -264 252 -265 403 -1 108 9 174 84 560 17 85 33 166 35 180 3 14
22 117 44 230 53 275 120 633 125 667 2 16 16 93 30 173 14 80 28 159 31 175
2 17 9 53 14 80 5 28 12 68 16 90 8 56 13 92 24 155 5 30 12 73 15 95 3 23 7
52 10 65 3 13 7 42 10 65 4 22 13 81 20 130 8 50 17 110 20 135 3 25 7 56 10
70 2 14 7 45 10 70 3 25 7 61 10 80 3 19 7 54 10 78 3 23 7 59 10 81 3 21 8
58 10 82 6 62 16 139 20 169 2 14 7 54 10 90 3 36 8 81 10 100 3 19 7 62 10
95 3 33 7 85 10 115 3 30 7 84 10 120 2 36 7 94 10 130 8 104 22 367 30 560 9
218 14 389 20 660 11 515 23 925 30 1045 2 44 7 130 10 190 3 61 8 142 10 180
18 247 26 352 34 425 3 36 3 90 -1 120 -3 30 -10 80 -13 110 -10 74 -11 79
-29 205 -9 61 -19 128 -21 150 -3 22 -7 51 -10 65 -2 14 -7 39 -9 55 -10 60
-36 221 -40 245 -3 14 -10 54 -16 90 -109 633 -286 1262 -464 1652 -14 31 -26
60 -26 63 0 4 -40 86 -88 183 -118 235 -192 366 -324 569 l-60 92 -56 11
c-949 190 -1843 552 -3462 1402 -246 129 -305 160 -355 188 -27 15 -90 49
-140 75 -143 76 -236 125 -290 155 -27 15 -90 49 -140 75 -49 27 -99 54 -110
60 -11 7 -55 31 -98 54 -69 37 -128 69 -312 171 -84 47 -229 130 -245 140 -8
5 -32 19 -53 31 -78 42 -376 225 -516 316 -156 102 -293 201 -410 296 l-73 60
-242 72 c-132 40 -299 91 -371 113 -71 22 -204 64 -295 92 -820 252 -1523 521
-2084 795 -236 116 -254 132 -272 255 -8 60 -8 452 0 560 8 91 33 332 42 390
30 207 95 571 128 718 l23 102 -56 32 c-135 76 -432 256 -494 301 -108 76
-106 76 -184 7 -74 -65 -186 -125 -251 -136 -36 -6 -48 -2 -91 25 l-50 32
-146 -4 c-81 -2 -167 0 -192 4 -129 24 -247 174 -262 331 l-6 71 -45 11 c-25
7 -82 31 -125 56 -84 46 -484 247 -625 315 -101 48 -171 113 -207 191 -75 163
-16 459 113 573 71 62 152 85 278 78 120 -6 146 -15 253 -79 74 -45 91 -51
184 -64 67 -9 133 -27 192 -50 66 -27 113 -38 185 -45 174 -16 306 -64 494
-180 162 -99 202 -114 422 -153 110 -20 321 -63 470 -95 149 -33 321 -70 381
-83 l110 -24 19 39 c10 21 25 41 33 44 27 10 1020 -229 1518 -366 779 -214
1517 -477 2340 -836 1012 -441 1493 -716 2174 -1239 l63 -49 287 -58 c157 -32
315 -65 351 -74 36 -8 76 -17 90 -19 14 -2 126 -28 250 -56 124 -29 261 -61
305 -71 93 -21 664 -165 810 -204 148 -39 457 -127 649 -185 93 -27 171 -49
173 -47 2 2 8 42 14 88 22 184 73 339 110 339 10 0 78 -59 151 -131 155 -153
238 -223 366 -307 234 -153 586 -287 851 -321 125 -17 159 -20 330 -26 l165
-7 -73 78 c-40 43 -99 117 -130 163 -92 140 -189 230 -429 400 -72 52 -132
100 -132 107 0 27 124 72 287 104 145 29 240 71 344 152 20 15 46 28 57 28 20
0 96 -68 154 -137 15 -17 102 -132 194 -255 237 -316 304 -399 424 -518 118
-118 203 -181 252 -186 187 -20 442 -59 580 -89 84 -19 114 -22 140 -14 18 6
105 12 193 14 193 4 309 -11 363 -48 l38 -25 74 71 c219 207 263 250 352 354
38 44 131 172 154 211 l19 33 -125 122 c-69 67 -147 140 -175 162 -27 22 -52
43 -55 46 -14 17 -246 189 -390 290 -340 237 -365 252 -485 288 -260 79 -663
221 -916 325 -230 94 -657 297 -849 403 -30 17 -82 45 -115 64 -33 18 -78 42
-100 54 -466 255 -1316 793 -1670 1057 -325 242 -576 479 -621 587 -39 92 11
383 151 885 30 109 54 201 52 203 -9 8 -237 33 -287 32 -30 -2 -95 -13 -145
-26 -59 -15 -124 -24 -190 -26 -109 -2 -141 8 -224 72 -20 15 -70 54 -112 85
-104 76 -130 142 -80 200 22 25 65 46 94 46 37 0 37 8 -4 49 -29 28 -39 47
-39 70 0 32 52 139 213 434 47 87 100 193 117 236 35 86 60 109 130 116 61 6
92 -9 235 -112 101 -73 178 -118 350 -202 300 -146 289 -141 299 -130 17 16
55 10 167 -27 196 -65 367 -155 949 -499 85 -51 234 -138 330 -195 96 -57 231
-137 300 -179 68 -42 133 -80 142 -86 33 -18 220 -137 490 -309 147 -94 286
-182 308 -196 22 -14 107 -68 188 -119 187 -121 489 -311 612 -386 l95 -58
227 -38 c503 -85 631 -122 1239 -365 496 -198 829 -308 1019 -339 19 -3 60
-10 90 -15 65 -10 149 -18 280 -25 138 -7 270 -16 310 -21 109 -12 120 -14
300 -50 76 -15 288 -95 408 -154 293 -143 727 -428 989 -649 40 -34 75 -61 77
-61 2 0 11 28 21 62 23 82 55 149 110 227 29 40 53 90 66 136 14 46 36 92 60
124 22 28 39 56 39 61 0 5 -14 29 -31 53 -32 46 -43 99 -27 130 5 9 51 38 103
62 99 47 136 79 290 247 103 113 118 173 65 271 -16 30 -32 68 -34 83 -6 33
23 87 84 154 120 132 340 426 340 455 0 6 -16 17 -35 24 -68 24 -64 80 10 128
19 13 53 49 76 80 88 121 185 187 289 198 125 13 144 17 170 30 14 7 32 20 39
29 24 29 84 39 255 41 128 2 188 7 236 20 76 21 165 23 279 5 66 -10 93 -10
141 0 37 8 83 10 120 6 60 -7 61 -7 55 17 -10 38 16 50 108 51 92 1 195 -29
322 -91 90 -44 115 -64 238 -187 104 -105 103 -104 252 -159 17 -6 53 -32 80
-57 28 -26 77 -67 110 -92 96 -73 100 -79 101 -167 1 -60 7 -88 28 -133 52
-109 89 -298 102 -522 3 -51 14 -114 25 -144 26 -73 26 -183 -1 -227 -11 -18
-24 -64 -29 -102 -6 -47 -17 -84 -35 -111 -14 -23 -26 -46 -26 -52 0 -6 -6
-21 -14 -33 -8 -12 -27 -58 -41 -102 -15 -44 -44 -109 -65 -145 -44 -75 -72
-140 -96 -225 -18 -61 -33 -90 -42 -81 -13 14 -45 -22 -87 -101 -66 -123 -124
-209 -149 -222 -12 -5 -41 -15 -66 -21 -37 -9 -59 -26 -117 -87 -68 -71 -75
-76 -110 -73 -87 6 -87 6 -203 -110 -61 -60 -116 -110 -123 -111 -7 -1 -24 0
-38 1 -25 1 -55 -18 -124 -83 -36 -33 -66 -42 -93 -28 -25 13 -36 9 -140 -51
-66 -39 -90 -48 -122 -46 -31 1 -46 -4 -67 -24 -16 -15 -54 -51 -86 -80 l-58
-53 75 -94 c41 -52 85 -115 97 -140 40 -86 26 -205 -53 -432 l-34 -97 59 -53
c269 -242 452 -611 578 -1164 26 -113 28 -123 34 -160 3 -16 10 -52 15 -80 5
-27 12 -68 16 -90 3 -22 7 -51 9 -65 33 -203 49 -559 31 -665 -28 -167 -46
-236 -95 -359 -44 -108 -196 -407 -274 -539 -52 -86 -66 -118 -72 -165 -9 -80
-13 -111 -31 -237 -55 -403 -140 -779 -224 -991 -69 -173 -184 -374 -275 -479
-222 -256 -559 -507 -902 -671 -101 -49 -124 -64 -137 -91 -28 -58 -313 -530
-397 -655 -71 -107 -203 -293 -219 -308 -3 -3 -32 -39 -64 -80 -133 -167 -410
-423 -626 -577 -233 -166 -454 -270 -545 -256 -58 9 -47 -5 -321 386 -91 130
-187 290 -264 439 l-76 147 -74 -40 c-170 -90 -205 -96 -280 -44 -29 20 -48
26 -83 24 -29 -2 -54 3 -71 14 -14 9 -41 17 -60 17 -45 0 -86 16 -103 40 -10
13 -26 20 -49 20 -19 0 -49 6 -68 14 -64 27 -91 85 -120 261 -24 141 -25 153
-32 280 -9 166 17 253 105 348 62 67 193 106 396 116 l129 6 14 40 c32 91 47
117 75 132 49 25 124 13 216 -35 44 -23 86 -42 93 -42 7 0 51 24 98 54 47 30
112 71 145 92 160 100 383 274 560 439 107 98 313 307 386 390 24 27 49 55 55
61 5 6 30 35 55 64 24 29 49 58 54 64 27 29 217 271 269 343 l59 81 -3 139
c-1 76 -3 156 -5 178 -1 22 -5 114 -9 205 -6 161 -15 282 -20 288 -2 1 -30
-30 -63 -70 -73 -88 -235 -253 -323 -328 -35 -30 -72 -63 -81 -72 -86 -82
-410 -310 -635 -446 -533 -322 -1074 -562 -1482 -657 -239 -56 -572 -109 -645
-102 -52 5 -63 3 -84 -17 l-24 -23 113 -85 c229 -173 405 -274 539 -309 49
-12 108 -19 177 -19 95 0 102 -1 102 -20 0 -40 -86 -115 -310 -268 -41 -28
-106 -74 -145 -101 -315 -224 -330 -230 -486 -187 -195 53 -346 152 -561 368
-77 78 -68 87 -92 -87 -3 -22 -8 -60 -11 -85 -3 -25 -7 -61 -10 -80 -3 -19 -7
-71 -10 -115 -4 -44 -8 -96 -10 -115 -25 -232 -25 -900 0 -1080 2 -19 7 -57
10 -85 11 -98 46 -292 74 -410 25 -103 41 -183 46 -220 1 -5 -3 -18 -8 -29 -8
-17 -18 -18 -101 -12 -77 5 -251 35 -347 60 -24 7 -26 4 -37 -41 -6 -26 -32
-132 -57 -236 -72 -300 -218 -997 -258 -1232 -8 -45 -36 -196 -42 -225 -3 -14
-14 -79 -25 -145 -11 -66 -21 -129 -24 -140 -3 -19 -13 -78 -21 -135 -2 -14
-11 -65 -19 -115 -8 -49 -18 -112 -21 -140 -4 -27 -8 -57 -10 -65 -2 -8 -6
-34 -9 -57 -6 -39 -14 -96 -22 -148 -1 -11 -5 -40 -8 -65 -3 -25 -8 -61 -11
-80 -9 -65 -15 -115 -20 -165 -3 -27 -7 -68 -10 -90 -6 -55 -14 -120 -20 -182
-3 -29 -7 -74 -10 -100 -3 -27 -7 -70 -9 -98 -3 -27 -7 -77 -11 -110 -3 -33
-8 -87 -10 -120 -3 -33 -7 -85 -10 -115 -3 -30 -7 -93 -10 -140 -3 -47 -7
-110 -10 -140 -2 -30 -7 -93 -10 -140 -3 -47 -8 -114 -10 -150 -3 -36 -7 -108
-10 -160 -3 -52 -7 -126 -10 -165 -5 -67 -14 -229 -20 -365 -27 -545 -27
-1346 0 -1670 2 -25 6 -83 10 -129 3 -47 8 -101 10 -120 2 -20 7 -65 10 -101
3 -36 8 -78 10 -95 2 -16 9 -73 16 -125 6 -52 13 -102 14 -110 2 -9 6 -43 10
-75 4 -33 9 -69 11 -80 3 -11 7 -36 10 -55 11 -74 15 -92 29 -160 8 -38 17
-82 20 -97 3 -16 7 -38 9 -50 8 -40 55 -206 74 -263 10 -30 18 -65 18 -76 -1
-37 -36 -63 -115 -88 -71 -22 -110 -29 -236 -42 -42 -4 -318 -12 -471 -14
l-40 0 21 -107 c45 -225 76 -287 190 -378 78 -62 106 -81 207 -134 98 -52 120
-57 288 -66 52 -3 115 -7 140 -10 25 -2 83 -7 130 -10 47 -3 110 -8 140 -10
30 -2 109 -7 175 -11 66 -3 140 -7 165 -9 25 -2 92 -6 150 -10 58 -3 132 -8
165 -10 101 -7 394 -20 695 -30 96 -4 200 -8 230 -10 236 -17 1743 -24 2200
-11 463 14 791 25 889 31 36 2 117 6 180 10 64 3 143 8 176 10 33 3 107 7 165
10 148 8 252 13 345 20 44 3 123 8 175 11 52 3 120 7 150 10 30 2 87 7 125 9
68 5 139 10 260 20 33 3 89 7 125 10 76 4 186 13 250 20 25 3 74 7 110 10 63
6 113 10 215 20 28 2 79 7 115 10 77 7 143 13 208 20 26 2 76 7 112 10 115 10
163 15 245 25 44 5 112 12 150 15 39 4 81 8 94 10 13 2 58 7 100 10 42 3 87 8
101 10 14 3 52 8 85 11 33 3 74 7 90 9 17 1 62 6 100 10 39 4 86 8 105 11 19
2 60 6 90 9 30 3 69 7 85 10 17 2 54 7 83 10 129 13 161 16 542 60 25 3 59 7
75 9 17 2 59 7 95 11 36 3 78 9 95 11 16 3 51 7 77 10 76 7 141 13 173 18 17
2 66 8 110 12 44 4 82 8 85 9 3 1 34 5 70 9 83 9 131 15 178 21 20 2 65 7 99
10 34 3 70 7 80 9 10 2 45 7 78 10 117 13 256 29 345 41 19 2 60 7 90 10 30 3
73 8 95 11 86 10 113 13 185 19 41 4 86 8 100 10 14 2 54 6 90 10 36 3 81 8
100 10 19 3 63 7 96 10 34 3 79 7 100 9 22 3 66 7 99 11 33 3 81 7 108 10 26
3 68 7 95 10 26 3 76 7 112 10 36 3 85 7 110 10 25 2 108 9 185 16 77 6 149
12 160 14 11 2 32 4 46 4 21 1 31 11 52 54 15 28 50 95 78 147 245 453 560
1137 764 1656 36 93 70 178 75 189 5 11 17 45 28 75 11 30 45 125 77 210 54
149 224 649 230 680 2 8 17 58 34 110 63 198 255 890 276 1000 2 9 15 66 30
126 15 60 29 120 31 134 3 14 9 41 14 60 5 19 11 46 14 60 6 30 10 46 30 130
24 100 62 280 91 430 14 74 27 146 30 160 14 71 76 439 90 535 9 61 18 121 20
135 3 14 7 50 11 80 3 30 8 64 10 75 2 11 6 43 9 70 5 47 14 110 20 146 2 8 6
51 10 94 3 43 8 81 9 84 2 3 7 46 11 95 4 50 8 97 10 105 2 9 6 54 9 101 4 47
9 101 11 120 13 139 29 349 40 555 4 61 8 137 10 170 27 398 27 1571 0 1880
-2 28 -7 100 -10 160 -4 61 -8 126 -10 145 -1 19 -6 78 -9 130 -4 52 -9 113
-11 135 -3 22 -7 65 -9 95 -15 159 -18 192 -41 390 -18 158 -24 214 -30 255
-2 17 -7 53 -10 80 -3 28 -10 75 -15 105 -5 30 -12 78 -15 105 -3 28 -10 73
-15 100 -5 28 -16 98 -25 156 -19 126 -18 121 -56 334 -53 291 -116 604 -164
810 -144 616 -276 1092 -452 1629 -78 238 -220 643 -242 691 -5 11 -26 65 -46
120 -43 117 -186 476 -221 553 -13 29 -24 55 -24 57 0 3 -9 24 -19 48 -11 23
-69 152 -129 287 -301 670 -621 1283 -995 1905 -262 436 -467 748 -814 1238
-37 53 -147 203 -166 227 -7 9 -39 51 -71 95 -47 63 -298 386 -362 464 -127
158 -435 523 -464 551 -3 3 -18 21 -34 40 -15 19 -47 55 -70 80 -22 25 -84 92
-136 150 -228 252 -709 743 -920 940 -223 209 -295 275 -430 395 -449 398
-1095 913 -1505 1200 -288 201 -393 273 -555 380 -102 66 -234 152 -295 190
-60 37 -132 83 -160 100 -87 55 -442 266 -545 323 -25 14 -94 53 -155 87 -60
34 -155 85 -210 115 -55 29 -128 68 -162 87 -218 117 -685 343 -1028 498
-1186 534 -2513 957 -3825 1219 -194 38 -257 51 -375 72 -165 29 -537 88 -630
99 -27 3 -61 8 -75 10 -14 3 -47 7 -75 10 -27 3 -61 8 -75 10 -14 3 -47 7 -75
10 -27 3 -84 10 -125 15 -81 10 -111 14 -270 30 -129 13 -185 18 -275 25 -38
3 -88 7 -110 10 -22 2 -85 7 -140 10 -55 4 -116 8 -135 10 -19 2 -107 7 -195
10 -88 4 -171 9 -185 12 -29 6 -1334 15 -1341 9z"/>
<path d="M11719 10405 c-2 -2 -107 -6 -234 -10 -126 -3 -268 -8 -315 -10 -47
-2 -159 -7 -250 -10 -91 -4 -187 -9 -215 -10 -115 -6 -314 -17 -365 -20 -30
-2 -107 -6 -170 -10 -63 -3 -140 -8 -170 -10 -66 -5 -193 -13 -310 -20 -47 -3
-105 -8 -130 -10 -25 -2 -83 -7 -130 -10 -189 -13 -324 -24 -405 -31 -33 -3
-85 -7 -115 -9 -30 -2 -84 -6 -120 -9 -36 -3 -96 -8 -135 -12 -38 -3 -81 -7
-95 -9 -14 -2 -63 -6 -110 -10 -47 -4 -98 -8 -115 -9 -16 -2 -66 -6 -110 -10
-44 -4 -91 -9 -105 -11 -14 -2 -59 -7 -100 -10 -85 -6 -152 -12 -225 -20 -27
-3 -70 -7 -95 -10 -25 -2 -76 -6 -115 -10 -82 -7 -146 -14 -195 -20 -19 -3
-62 -7 -95 -10 -33 -3 -80 -8 -105 -11 -25 -3 -65 -7 -90 -9 -66 -6 -161 -16
-190 -20 -14 -2 -54 -6 -90 -10 -36 -4 -76 -8 -90 -10 -14 -2 -59 -6 -100 -10
-41 -3 -82 -8 -90 -10 -8 -2 -44 -7 -80 -10 -36 -3 -81 -8 -100 -10 -19 -2
-60 -7 -90 -10 -30 -3 -72 -8 -92 -10 -21 -3 -55 -7 -75 -10 -21 -2 -63 -7
-93 -10 -30 -4 -57 -9 -59 -11 -8 -8 151 -207 217 -271 103 -99 134 -103 832
-128 336 -12 547 -21 705 -30 44 -2 136 -7 205 -10 69 -3 157 -8 195 -10 39
-3 108 -7 155 -10 80 -4 118 -7 295 -20 39 -2 111 -7 160 -11 50 -3 110 -7
135 -9 25 -2 90 -6 145 -10 55 -3 120 -8 145 -10 25 -2 95 -7 155 -10 61 -4
126 -8 145 -10 19 -2 87 -6 150 -10 63 -3 135 -8 160 -10 25 -3 88 -7 140 -10
52 -3 122 -7 155 -9 33 -3 107 -8 165 -11 58 -4 125 -8 150 -10 25 -2 99 -7
165 -10 66 -4 136 -8 155 -10 19 -2 89 -6 155 -10 66 -4 143 -8 170 -11 28 -2
100 -6 160 -10 61 -3 126 -7 145 -9 19 -2 80 -7 135 -10 55 -3 119 -8 143 -10
23 -2 86 -7 140 -10 103 -6 182 -12 272 -20 30 -2 96 -7 145 -10 50 -3 113 -7
140 -10 28 -2 86 -7 130 -10 86 -6 173 -13 245 -20 94 -8 178 -15 255 -20 44
-4 94 -8 110 -10 17 -2 66 -7 110 -10 76 -6 122 -10 225 -20 25 -2 74 -7 110
-10 36 -3 85 -8 110 -10 25 -3 77 -7 115 -11 39 -3 84 -7 100 -9 17 -2 66 -6
110 -10 44 -3 94 -8 110 -10 17 -2 64 -7 105 -10 41 -4 91 -8 110 -10 19 -3
72 -7 117 -10 46 -3 92 -8 103 -10 12 -2 56 -7 98 -10 42 -3 91 -8 107 -10 17
-2 62 -6 100 -10 39 -3 84 -8 100 -10 17 -2 66 -7 110 -10 44 -4 88 -9 97 -10
9 -2 48 -7 85 -10 37 -4 79 -8 93 -10 14 -2 54 -7 90 -10 36 -4 74 -9 84 -11
11 -2 76 -11 145 -19 69 -9 133 -18 141 -20 8 -3 33 -7 55 -10 22 -4 56 -10
75 -15 19 -5 51 -12 70 -15 64 -11 185 -56 218 -81 40 -31 41 -56 1 -93 -78
-75 -345 -135 -732 -166 -289 -23 -547 -31 -1257 -40 -1083 -14 -1351 -19
-2045 -40 -93 -3 -253 -7 -355 -10 -102 -3 -243 -8 -315 -10 -71 -2 -215 -7
-320 -10 -104 -3 -257 -8 -340 -10 -82 -3 -217 -8 -300 -10 -194 -6 -441 -14
-630 -20 -82 -3 -222 -7 -310 -10 -88 -3 -232 -7 -320 -10 -88 -3 -223 -8
-300 -10 -77 -3 -196 -7 -265 -10 -69 -3 -179 -7 -245 -10 -604 -24 -885 -59
-915 -115 -20 -37 -8 -57 93 -156 111 -111 157 -138 301 -180 131 -38 355 -86
456 -98 14 -2 59 -8 100 -14 117 -17 188 -25 345 -37 44 -3 105 -8 135 -10 30
-3 96 -7 145 -10 50 -3 110 -8 135 -10 25 -2 99 -6 165 -10 66 -3 147 -8 180
-10 64 -6 192 -13 315 -20 41 -2 111 -6 155 -9 44 -3 123 -8 175 -11 52 -3
127 -8 165 -10 217 -14 252 -16 490 -30 33 -2 110 -7 170 -11 61 -3 133 -8
160 -9 28 -2 105 -6 172 -10 67 -3 145 -8 175 -10 29 -2 107 -7 173 -10 66 -4
143 -8 170 -10 28 -2 104 -6 170 -10 66 -3 147 -8 180 -10 53 -4 124 -8 350
-20 96 -5 265 -15 325 -20 30 -2 100 -7 155 -10 55 -3 120 -8 145 -10 25 -2
95 -6 155 -10 61 -3 133 -8 160 -10 28 -3 91 -7 140 -10 50 -3 113 -8 140 -10
28 -2 91 -7 140 -10 50 -3 113 -8 140 -10 49 -5 119 -10 265 -20 41 -3 98 -7
125 -10 28 -2 86 -7 130 -10 44 -3 103 -8 130 -10 28 -2 91 -7 140 -10 50 -4
110 -8 135 -11 25 -2 83 -6 130 -9 47 -3 105 -7 130 -10 72 -8 139 -14 230
-20 47 -3 108 -7 135 -10 28 -2 86 -7 130 -10 44 -4 97 -8 117 -10 21 -2 75
-7 120 -10 46 -3 101 -7 123 -10 22 -2 76 -7 120 -10 44 -4 96 -8 115 -10 19
-2 73 -7 120 -10 47 -3 96 -8 110 -10 14 -2 63 -7 110 -10 47 -4 99 -8 115 -9
34 -4 120 -12 320 -30 33 -3 80 -8 105 -11 25 -2 68 -7 95 -10 131 -14 240
-26 271 -30 19 -3 51 -7 72 -10 225 -32 374 -68 482 -117 85 -38 109 -76 86
-133 -21 -50 -91 -81 -224 -101 -20 -3 -44 -7 -52 -9 -8 -2 -62 -9 -120 -16
-138 -15 -143 -15 -230 -23 -41 -4 -91 -9 -110 -11 -19 -2 -66 -7 -105 -10
-38 -3 -90 -7 -115 -10 -57 -5 -142 -13 -245 -20 -44 -4 -100 -8 -125 -10 -55
-5 -169 -13 -273 -20 -43 -3 -106 -7 -140 -10 -84 -6 -212 -14 -332 -20 -55
-3 -134 -7 -175 -10 -41 -3 -131 -7 -200 -10 -69 -3 -165 -7 -215 -10 -49 -2
-148 -7 -220 -10 -71 -3 -182 -7 -245 -10 -63 -3 -176 -7 -250 -10 -74 -3
-184 -7 -245 -10 -60 -3 -177 -7 -260 -10 -167 -7 -279 -11 -500 -20 -82 -3
-206 -7 -275 -10 -69 -2 -190 -7 -270 -10 -538 -19 -1040 -32 -1945 -50 -148
-3 -349 -7 -445 -10 -96 -2 -276 -7 -400 -10 -308 -8 -660 -22 -697 -29 -10
-2 -40 -7 -66 -10 -87 -13 -146 -99 -99 -143 37 -36 72 -62 99 -76 28 -15 173
-50 248 -62 22 -3 51 -7 65 -10 14 -2 61 -9 105 -15 44 -6 91 -13 105 -15 14
-3 50 -7 80 -10 30 -3 66 -8 80 -11 14 -2 44 -6 68 -9 23 -3 61 -7 85 -10 23
-3 62 -8 87 -10 49 -6 114 -13 170 -20 19 -2 67 -7 105 -11 39 -3 84 -8 100
-9 17 -2 68 -6 115 -10 47 -4 99 -9 115 -10 17 -2 66 -6 110 -9 44 -4 105 -8
135 -11 30 -2 93 -7 140 -10 47 -4 108 -8 135 -11 28 -2 86 -6 130 -9 44 -3
113 -7 153 -10 123 -9 213 -14 317 -20 55 -3 134 -8 175 -11 41 -2 113 -7 160
-9 47 -3 119 -7 160 -10 41 -2 127 -7 190 -10 63 -3 153 -8 200 -10 85 -5 186
-10 395 -20 157 -7 281 -13 430 -21 178 -9 205 -10 405 -19 96 -4 200 -9 230
-10 30 -2 114 -6 185 -9 72 -4 162 -9 200 -11 39 -2 122 -7 185 -10 243 -11
317 -15 385 -20 39 -3 120 -7 180 -10 61 -4 130 -8 155 -10 25 -2 97 -7 160
-10 198 -12 213 -13 305 -19 50 -4 117 -9 150 -11 86 -6 210 -15 285 -21 36
-3 94 -7 130 -9 36 -3 88 -7 115 -10 28 -2 88 -7 135 -10 47 -3 105 -7 130
-10 25 -2 83 -7 130 -10 47 -3 105 -8 130 -10 44 -4 120 -10 250 -20 36 -3 92
-7 125 -10 33 -3 96 -7 140 -10 44 -3 107 -8 140 -10 78 -6 265 -17 520 -29
66 -4 161 -8 210 -11 50 -3 137 -7 195 -10 58 -3 121 -8 140 -10 19 -3 53 -7
74 -10 153 -18 375 -153 420 -254 41 -91 -3 -163 -109 -176 -27 -4 -59 -8 -70
-10 -11 -1 -56 -6 -100 -10 -44 -4 -91 -8 -105 -11 -14 -2 -65 -6 -115 -9 -49
-4 -110 -8 -135 -11 -25 -2 -76 -6 -115 -9 -38 -3 -101 -8 -140 -11 -38 -3
-92 -7 -120 -9 -164 -11 -251 -18 -420 -30 -33 -3 -98 -7 -145 -10 -47 -3
-112 -8 -145 -10 -33 -2 -105 -7 -160 -10 -55 -4 -122 -8 -150 -10 -27 -2
-106 -6 -175 -10 -69 -3 -136 -8 -150 -10 -14 -2 -81 -7 -150 -10 -69 -3 -152
-8 -185 -11 -33 -2 -96 -6 -140 -9 -44 -3 -114 -7 -155 -10 -41 -3 -122 -7
-180 -11 -58 -3 -130 -7 -160 -9 -30 -2 -98 -6 -150 -10 -168 -10 -254 -15
-320 -20 -36 -3 -108 -7 -160 -10 -52 -3 -131 -7 -175 -10 -100 -7 -190 -12
-325 -20 -58 -3 -130 -8 -160 -10 -30 -2 -109 -7 -175 -11 -65 -3 -137 -8
-160 -9 -22 -2 -103 -7 -180 -10 -77 -4 -165 -8 -195 -10 -30 -2 -107 -7 -170
-10 -63 -3 -146 -7 -185 -10 -66 -4 -177 -10 -408 -20 -229 -11 -350 -16 -482
-20 -759 -23 -808 -28 -821 -80 -11 -44 19 -77 113 -126 87 -46 170 -72 268
-84 28 -3 57 -8 65 -10 8 -2 35 -6 60 -9 25 -3 153 -19 285 -36 276 -35 302
-38 370 -45 28 -3 84 -10 125 -15 41 -5 100 -12 130 -15 30 -3 69 -8 85 -10
17 -2 75 -9 130 -15 94 -10 137 -15 210 -25 17 -3 55 -7 85 -10 126 -12 209
-21 270 -30 14 -2 52 -6 85 -10 33 -3 76 -8 95 -10 94 -11 128 -15 160 -19 19
-3 62 -7 95 -10 33 -4 78 -8 100 -11 67 -9 115 -14 225 -25 58 -6 119 -13 135
-15 17 -3 50 -7 75 -10 25 -2 68 -7 95 -10 51 -5 130 -13 200 -21 22 -2 63 -6
90 -10 103 -11 122 -13 185 -20 36 -3 73 -8 83 -9 9 -2 52 -7 94 -10 42 -3 79
-7 82 -9 3 -2 46 -7 94 -11 49 -3 98 -8 110 -10 12 -2 51 -6 87 -9 36 -4 76
-8 90 -10 14 -3 61 -7 105 -11 44 -4 87 -8 95 -10 8 -1 47 -6 85 -9 39 -4 86
-8 105 -11 42 -5 112 -13 195 -20 33 -3 77 -8 98 -10 20 -3 54 -7 75 -10 20
-2 64 -7 97 -10 33 -3 78 -8 100 -10 22 -3 67 -7 100 -10 33 -3 96 -10 140
-15 44 -5 112 -12 150 -15 39 -4 81 -8 95 -10 27 -4 88 -11 190 -20 36 -4 76
-8 90 -10 14 -2 57 -6 95 -10 39 -3 81 -8 95 -10 14 -2 61 -6 105 -10 44 -3
87 -8 95 -10 8 -2 47 -7 85 -10 39 -3 88 -8 110 -10 22 -2 67 -7 100 -10 33
-3 78 -8 100 -10 22 -2 67 -7 100 -10 33 -3 76 -8 95 -10 19 -2 69 -7 110 -10
41 -4 82 -9 92 -10 9 -2 54 -6 100 -10 45 -3 94 -8 108 -10 14 -2 54 -6 90
-10 69 -6 115 -10 220 -21 36 -4 76 -8 90 -9 81 -8 163 -17 178 -20 90 -17
142 -48 142 -84 0 -26 -57 -73 -132 -110 -57 -27 -200 -74 -267 -86 -14 -3
-37 -7 -51 -10 -35 -7 -135 -25 -162 -30 -70 -11 -131 -19 -224 -30 -29 -3
-60 -7 -70 -9 -11 -2 -50 -7 -89 -11 -38 -3 -83 -8 -100 -10 -16 -3 -55 -7
-85 -10 -30 -3 -68 -7 -85 -9 -33 -4 -130 -14 -210 -21 -27 -3 -72 -7 -100
-10 -27 -3 -81 -7 -120 -10 -38 -3 -81 -8 -95 -10 -14 -2 -70 -7 -125 -11 -55
-3 -108 -8 -117 -9 -9 -2 -57 -6 -105 -10 -48 -3 -104 -8 -123 -10 -19 -3 -71
-7 -115 -10 -44 -3 -105 -8 -135 -10 -71 -7 -134 -12 -245 -21 -123 -9 -154
-22 -155 -66 0 -55 176 -136 343 -158 45 -6 93 -13 107 -15 14 -2 43 -6 65 -9
22 -3 58 -8 80 -10 22 -3 58 -8 80 -10 73 -9 130 -16 165 -21 19 -2 62 -7 95
-10 65 -6 143 -14 190 -20 17 -2 68 -6 115 -10 47 -3 99 -8 115 -10 17 -2 62
-6 100 -10 68 -5 111 -8 325 -21 58 -3 128 -7 155 -9 353 -26 1169 -26 1590 0
28 1 100 6 160 9 120 7 198 12 290 20 33 3 96 8 140 11 44 3 96 8 115 10 19 2
60 7 90 10 30 3 75 8 100 10 25 3 70 7 100 10 30 3 71 7 90 10 42 5 136 16
170 20 37 4 130 16 149 20 9 1 45 6 81 10 36 4 74 9 84 11 11 2 54 8 96 14 42
6 87 13 100 15 13 3 40 7 60 10 20 3 45 7 55 9 11 2 40 7 65 10 44 6 68 10
120 21 14 3 41 7 60 9 19 3 118 21 220 40 102 19 196 37 210 40 68 12 473 99
567 122 60 14 119 28 132 30 14 3 28 7 32 9 4 3 24 7 45 11 22 3 46 10 54 14
8 4 17 8 20 7 9 -1 114 25 260 65 80 21 153 41 162 43 101 22 570 165 596 181
65 42 -31 110 -183 130 -16 2 -41 6 -55 9 -14 2 -47 7 -75 11 -27 3 -57 8 -67
9 -9 2 -38 7 -65 11 -26 3 -55 8 -63 9 -8 2 -35 6 -60 10 -25 4 -52 9 -60 10
-8 1 -35 6 -60 10 -49 7 -152 26 -300 55 -52 10 -106 20 -120 23 -14 3 -106
21 -205 42 -99 20 -189 39 -200 41 -11 2 -74 15 -140 28 -66 14 -131 27 -145
30 -14 2 -70 14 -125 26 -55 11 -113 23 -130 26 -32 5 -404 81 -540 109 -44
10 -89 19 -100 21 -33 6 -205 41 -290 59 -44 9 -107 22 -140 30 -33 8 -71 16
-85 19 -38 7 -235 53 -325 76 -44 11 -89 22 -99 25 -57 13 -204 60 -256 80
-104 41 -171 90 -189 138 -26 68 59 89 454 112 55 3 132 8 170 10 39 2 122 7
185 10 63 3 140 8 170 10 30 2 118 6 195 10 77 3 163 8 190 10 28 2 106 7 175
10 69 3 152 8 185 10 33 2 112 7 175 10 129 6 270 14 375 20 39 2 131 7 205
11 74 3 155 8 180 9 25 1 106 5 180 9 74 4 162 9 195 11 67 5 221 13 365 20
52 3 131 7 175 9 44 3 134 8 200 11 66 4 152 8 190 10 39 2 124 6 190 10 66 3
149 8 185 10 36 3 119 7 185 10 66 3 154 7 195 10 41 2 131 7 200 10 69 3 150
8 180 10 30 3 111 7 180 11 69 3 143 7 165 8 22 2 101 6 175 10 74 4 151 9
170 11 19 2 85 7 145 10 61 3 128 8 150 10 39 4 77 7 250 21 44 3 96 7 115 9
19 2 69 7 110 10 41 4 89 8 105 9 17 2 68 7 115 11 47 4 93 9 104 11 10 2 53
6 94 10 42 3 84 7 93 9 10 2 49 7 86 10 37 4 76 9 86 11 10 2 45 6 78 9 33 4
70 8 81 10 11 3 46 7 77 11 31 3 65 8 76 10 11 3 36 7 55 10 19 3 49 7 65 10
155 25 272 71 403 158 136 90 160 134 99 180 -103 78 -292 102 -1042 131 -71
3 -177 7 -235 10 -58 3 -163 7 -235 10 -71 3 -173 8 -225 10 -52 3 -133 8
-180 10 -263 13 -320 16 -365 20 -27 2 -104 7 -170 10 -66 4 -145 9 -175 11
-57 4 -132 9 -280 19 -47 3 -112 8 -145 10 -33 3 -91 7 -130 10 -38 3 -97 7
-130 10 -33 2 -98 7 -145 10 -47 4 -101 8 -120 10 -34 3 -124 11 -240 20 -30
3 -84 7 -120 10 -36 4 -87 8 -115 10 -27 2 -77 6 -110 9 -84 8 -157 14 -255
21 -47 4 -92 8 -100 10 -8 2 -51 7 -95 10 -44 3 -93 8 -110 10 -16 2 -70 7
-119 10 -49 4 -98 9 -109 11 -10 2 -58 6 -105 9 -48 4 -98 8 -112 10 -14 2
-61 7 -105 10 -44 3 -96 8 -115 10 -19 3 -66 7 -105 11 -38 3 -86 7 -105 9
-58 6 -199 20 -315 30 -59 5 -97 9 -220 20 -33 3 -76 8 -95 10 -19 2 -64 7
-100 10 -163 14 -286 29 -332 41 -5 1 -17 2 -27 3 -27 2 -81 49 -81 72 0 21
41 45 90 54 19 3 36 8 39 10 4 2 29 6 56 9 27 4 57 8 65 11 8 2 38 7 65 10 28
3 64 7 80 10 17 3 48 7 70 10 111 12 142 15 170 19 17 3 55 7 85 10 30 4 73 8
95 11 22 2 76 7 120 11 44 3 82 8 85 9 3 2 46 6 95 10 50 4 98 9 108 11 9 1
54 6 100 9 45 3 93 8 107 10 14 2 63 6 110 10 47 3 101 8 120 10 19 2 71 7
115 10 44 3 100 8 125 11 44 4 72 7 220 19 41 3 95 8 120 10 25 2 81 7 125 10
44 3 98 8 120 10 22 2 78 7 125 10 163 11 215 15 265 20 28 3 86 7 130 10 121
8 205 15 260 20 45 4 123 10 260 21 28 2 91 6 140 9 50 3 110 8 135 10 25 3
83 7 130 10 47 3 110 7 140 10 30 3 89 7 130 10 41 3 100 8 130 10 30 2 91 7
135 10 44 3 100 7 125 10 69 6 198 16 265 20 82 5 201 15 255 20 25 2 77 7
115 10 39 3 90 7 115 10 25 2 81 7 125 10 44 3 103 7 130 10 28 3 82 7 120 10
98 8 160 13 235 20 36 4 88 8 115 10 28 2 82 7 120 10 115 10 156 14 245 20
47 3 96 8 110 10 14 2 68 6 120 10 52 3 115 8 140 10 25 2 81 7 125 10 44 3
98 8 120 10 22 2 78 7 125 10 175 13 207 15 275 21 39 4 86 8 105 9 93 6 220
16 260 20 25 3 77 7 115 10 115 8 207 15 255 20 25 3 79 7 120 10 41 3 95 7
120 10 25 2 77 7 115 10 39 4 88 8 110 10 22 2 69 7 105 10 36 3 74 7 85 10
11 2 43 7 70 11 39 5 63 16 107 53 62 50 68 67 44 124 -19 48 -81 92 -167 121
-75 25 -278 70 -359 80 -25 3 -54 8 -65 10 -11 2 -45 7 -75 11 -30 4 -63 9
-74 11 -10 2 -44 6 -75 9 -31 4 -67 8 -81 11 -14 2 -54 6 -90 9 -36 4 -72 8
-80 10 -8 2 -42 7 -75 10 -33 4 -71 8 -85 10 -14 2 -54 6 -90 10 -36 3 -76 8
-90 10 -14 3 -56 7 -95 10 -38 4 -81 8 -95 10 -14 2 -59 6 -100 10 -41 3 -91
8 -111 11 -67 9 -226 24 -414 39 -38 3 -81 8 -95 10 -14 2 -56 6 -95 9 -99 8
-182 15 -240 21 -27 2 -84 7 -125 10 -41 3 -93 7 -115 10 -22 3 -78 7 -125 10
-47 3 -99 8 -115 10 -17 2 -73 7 -125 10 -52 3 -102 8 -110 10 -8 2 -64 7
-125 11 -60 3 -117 7 -125 9 -19 4 -116 13 -200 20 -161 12 -207 16 -240 20
-19 2 -71 6 -115 10 -77 6 -114 9 -220 19 -27 3 -79 8 -115 11 -100 9 -161 15
-210 20 -25 2 -67 7 -95 9 -27 3 -79 8 -115 12 -36 4 -68 7 -72 6 -4 -1 -42 3
-85 8 -43 5 -100 12 -128 14 -27 3 -77 8 -110 12 -33 3 -76 7 -95 9 -19 2 -57
6 -85 9 -27 4 -72 9 -100 12 -27 2 -61 7 -75 9 -14 2 -52 7 -85 10 -33 3 -71
8 -85 10 -14 2 -50 7 -80 10 -30 3 -68 7 -85 10 -16 2 -57 7 -90 11 -33 3 -62
8 -65 9 -3 2 -37 6 -75 10 -39 4 -73 9 -76 11 -4 2 -24 6 -45 9 -148 22 -259
51 -311 81 -49 29 -48 47 5 70 65 27 154 44 307 59 33 3 76 8 95 10 19 2 78 7
130 10 52 3 120 8 150 10 30 2 129 7 220 10 91 3 203 8 250 10 85 5 247 11
525 20 83 3 206 7 275 10 69 2 199 7 290 10 91 4 206 8 255 10 50 2 160 7 245
10 85 3 187 8 225 10 39 2 140 7 225 10 85 3 187 8 225 10 39 2 138 7 220 10
83 3 177 7 210 10 33 2 132 7 220 11 88 4 185 8 215 9 30 2 123 6 205 9 83 4
182 9 220 11 63 4 143 8 425 20 47 2 144 6 215 10 256 11 536 23 730 30 66 2
188 7 270 10 83 3 206 8 275 10 69 3 175 7 235 10 61 3 164 7 230 10 196 9
497 27 655 40 19 2 71 6 115 9 175 14 317 37 356 56 54 28 149 125 319 325 47
55 87 102 90 105 45 44 386 459 602 735 108 138 391 520 397 536 2 7 -7 9 -25
5 -16 -3 -58 -8 -94 -11 -36 -3 -101 -10 -145 -16 -44 -5 -96 -11 -115 -13
-19 -3 -69 -8 -110 -11 -41 -4 -82 -8 -90 -10 -14 -3 -109 -14 -170 -20 -14
-1 -47 -5 -75 -9 -27 -3 -72 -8 -100 -11 -27 -3 -66 -7 -85 -10 -19 -2 -116
-14 -215 -25 -197 -22 -255 -29 -300 -34 -16 -2 -64 -7 -105 -11 -41 -4 -83
-9 -93 -11 -10 -2 -84 -10 -165 -19 -81 -8 -163 -17 -182 -20 -101 -11 -158
-18 -190 -21 -19 -2 -53 -6 -75 -8 -22 -3 -65 -8 -95 -11 -30 -3 -71 -7 -90
-10 -19 -2 -64 -7 -100 -10 -36 -4 -76 -8 -90 -10 -14 -2 -54 -6 -90 -10 -36
-3 -81 -8 -100 -10 -99 -11 -148 -17 -180 -20 -19 -2 -69 -7 -110 -11 -41 -3
-82 -7 -90 -9 -8 -2 -47 -6 -87 -10 -40 -4 -85 -8 -100 -10 -15 -2 -66 -7
-113 -10 -47 -4 -94 -9 -104 -11 -10 -2 -51 -6 -90 -9 -39 -3 -82 -8 -96 -10
-14 -2 -63 -7 -110 -11 -47 -3 -96 -8 -110 -9 -14 -1 -61 -6 -105 -9 -44 -4
-96 -9 -115 -11 -19 -2 -69 -7 -110 -10 -41 -3 -95 -7 -120 -10 -25 -2 -79 -7
-120 -10 -41 -3 -100 -7 -130 -10 -30 -3 -89 -7 -130 -10 -41 -3 -97 -7 -125
-10 -45 -4 -109 -9 -285 -20 -30 -2 -98 -7 -150 -10 -52 -4 -122 -8 -155 -10
-111 -6 -250 -15 -305 -20 -52 -4 -194 -12 -355 -20 -38 -2 -110 -6 -160 -9
-49 -3 -139 -8 -200 -11 -60 -3 -159 -7 -220 -11 -770 -39 -2025 -39 -3060 0
-309 12 -399 16 -507 21 -60 3 -159 7 -220 10 -62 3 -144 7 -183 10 -38 2
-124 7 -190 10 -66 4 -145 8 -175 10 -30 3 -104 7 -165 10 -60 4 -121 8 -135
10 -14 2 -81 7 -150 10 -69 4 -138 8 -155 10 -56 5 -180 15 -260 20 -140 9
-342 26 -492 41 -32 3 -83 7 -113 10 -76 6 -145 12 -210 19 -30 3 -77 7 -105
10 -27 3 -74 8 -102 10 -72 7 -162 16 -198 20 -16 2 -59 6 -95 10 -36 3 -81 8
-100 10 -19 2 -62 7 -95 10 -33 3 -78 8 -100 10 -22 3 -65 7 -95 10 -30 3 -71
8 -90 10 -19 3 -58 7 -85 9 -28 3 -70 7 -95 10 -92 11 -137 15 -205 21 -38 4
-81 8 -95 10 -14 3 -50 7 -80 10 -30 4 -89 10 -130 15 -41 5 -104 12 -140 15
-36 4 -76 8 -90 10 -14 2 -54 6 -90 10 -36 3 -76 8 -90 10 -14 2 -54 7 -90 10
-36 4 -76 8 -90 10 -14 2 -54 6 -90 10 -78 8 -123 14 -170 20 -19 2 -82 9
-140 15 -58 6 -116 13 -130 15 -14 2 -56 7 -95 10 -38 4 -81 8 -95 10 -14 2
-47 6 -75 9 -85 9 -149 16 -180 20 -45 6 -118 14 -230 26 -55 6 -113 13 -130
15 -16 2 -57 7 -90 10 -33 3 -71 8 -85 10 -14 3 -56 7 -95 10 -38 4 -82 8 -96
10 -14 3 -52 7 -85 10 -32 3 -72 7 -89 10 -16 2 -57 7 -90 10 -33 3 -76 8 -95
10 -33 4 -66 8 -180 20 -47 5 -101 11 -185 20 -27 3 -71 7 -97 10 -27 3 -69 7
-95 10 -64 6 -129 13 -178 19 -35 4 -97 10 -210 21 -143 12 -194 17 -218 21
-15 2 -55 6 -90 9 -34 3 -84 7 -112 10 -27 3 -70 7 -95 10 -25 2 -76 7 -115
10 -38 3 -86 7 -105 10 -19 2 -75 7 -123 10 -49 3 -103 7 -120 10 -18 2 -75 7
-127 10 -52 4 -113 8 -135 10 -45 4 -173 13 -280 20 -38 3 -104 7 -145 10
-202 14 -318 21 -500 30 -58 3 -132 7 -165 10 -33 2 -118 7 -190 10 -71 3
-158 8 -192 10 -34 2 -136 7 -225 11 -90 3 -199 8 -243 11 -95 5 -2031 13
-2036 8z"/>
</g>
</svg>
